<?xml version="1.0" encoding="iso-8859-1"?>
<!-- Generator: Adobe Illustrator 18.0.0, SVG Export Plug-In . SVG Version: 6.00 Build 0)  -->
<!DOCTYPE svg PUBLIC "-//W3C//DTD SVG 1.1//EN" "http://www.w3.org/Graphics/SVG/1.1/DTD/svg11.dtd">
<svg version="1.1" xmlns="http://www.w3.org/2000/svg" xmlns:xlink="http://www.w3.org/1999/xlink" x="0px" y="0px"
	 viewBox="0 0 1093.024 228.485" style="enable-background:new 0 0 1093.024 228.485;" xml:space="preserve">
<g id="sprite_x5F_twitter">
	<g id="graphics">
		<path style="fill:#58584F;" d="M1083.136,1.043c-4.971,0-9,4.03-9,9c0,4.97,4.029,8.999,9,8.999c4.971,0,9-4.029,9-8.999
			C1092.135,5.073,1088.106,1.043,1083.136,1.043z M1087.67,8.229c0.004,0.097,0.006,0.195,0.006,0.293
			c0,2.998-2.281,6.454-6.453,6.454c-1.281,0-2.473-0.375-3.477-1.019c0.178,0.021,0.358,0.031,0.541,0.031
			c1.063,0,2.041-0.363,2.817-0.971c-0.993-0.018-1.83-0.674-2.119-1.575c0.138,0.027,0.281,0.041,0.427,0.041
			c0.207,0,0.407-0.028,0.597-0.08c-1.038-0.208-1.82-1.125-1.82-2.224c0-0.01,0-0.019,0-0.029c0.306,0.17,0.656,0.272,1.028,0.284
			c-0.609-0.408-1.009-1.101-1.009-1.888c0-0.416,0.112-0.806,0.307-1.14c1.119,1.372,2.79,2.275,4.676,2.37
			c-0.039-0.166-0.059-0.339-0.059-0.517c0-1.253,1.016-2.268,2.268-2.268c0.653,0,1.242,0.276,1.656,0.716
			c0.517-0.101,1.002-0.291,1.441-0.55c-0.17,0.53-0.53,0.974-0.998,1.255c0.459-0.055,0.896-0.177,1.303-0.357
			C1088.498,7.509,1088.113,7.909,1087.67,8.229z"/>
	</g>
	<rect id="area_6_" x="1073.246" style="opacity:0;fill:#CCCCCC;" width="19.778" height="20.085"/>
</g>
<g id="sprite_x5F_twitter-hover">
	<g id="graphics_3_">
		<path style="fill:#58584F;" d="M1039.358,1.043c-4.971,0-9,4.03-9,9c0,4.97,4.029,8.999,9,8.999c4.971,0,9-4.029,9-8.999
			C1048.357,5.073,1044.328,1.043,1039.358,1.043z M1043.892,8.229c0.004,0.097,0.006,0.195,0.006,0.293
			c0,2.998-2.282,6.454-6.453,6.454c-1.281,0-2.473-0.375-3.477-1.019c0.178,0.021,0.358,0.031,0.541,0.031
			c1.063,0,2.041-0.363,2.818-0.971c-0.993-0.018-1.83-0.674-2.119-1.575c0.138,0.027,0.281,0.041,0.427,0.041
			c0.207,0,0.407-0.028,0.597-0.08c-1.038-0.208-1.82-1.125-1.82-2.224c0-0.01,0-0.019,0-0.029c0.306,0.17,0.656,0.272,1.028,0.284
			c-0.609-0.408-1.009-1.101-1.009-1.888c0-0.416,0.112-0.806,0.307-1.14c1.119,1.372,2.79,2.275,4.676,2.37
			c-0.039-0.166-0.059-0.339-0.059-0.517c0-1.253,1.016-2.268,2.268-2.268c0.653,0,1.242,0.276,1.656,0.716
			c0.517-0.101,1.002-0.291,1.441-0.55c-0.17,0.53-0.53,0.974-0.998,1.255c0.459-0.055,0.896-0.177,1.303-0.357
			C1044.719,7.509,1044.335,7.909,1043.892,8.229z"/>
	</g>
	<rect id="area_7_" x="1029.468" style="opacity:0;fill:#CCCCCC;" width="19.778" height="20.085"/>
</g>
<g id="sprite_x5F_facebook_1_">
	<g id="graphics_39_">
		<path style="fill:#58584F;" d="M995.69,1.089c-4.971,0-9,4.03-9,9c0,4.97,4.03,8.999,9,8.999s9-4.029,9-8.999
			C1004.691,5.12,1000.661,1.089,995.69,1.089z M998.073,10.052h-1.558c0,2.491,0,5.558,0,5.558h-2.311c0,0,0-3.036,0-5.558h-1.098
			V8.089h1.098V6.818c0-0.91,0.432-2.331,2.332-2.331l1.71,0.007V6.4c0,0-1.04,0-1.242,0s-0.489,0.102-0.489,0.534v1.156h1.76
			L998.073,10.052z"/>
	</g>
	<rect id="area_5_" x="985.69" style="opacity:0;fill:#CCCCCC;" width="19.778" height="20.085"/>
</g>
<g id="sprite_x5F_facebook-hover">
	<g id="graphics_2_">
		<path style="fill:#58584F;" d="M951.912,1.089c-4.971,0-9,4.03-9,9c0,4.97,4.03,8.999,9,8.999s9-4.029,9-8.999
			C960.913,5.12,956.883,1.089,951.912,1.089z M954.295,10.052h-1.558c0,2.491,0,5.558,0,5.558h-2.311c0,0,0-3.036,0-5.558h-1.098
			V8.089h1.098V6.818c0-0.91,0.432-2.331,2.332-2.331l1.71,0.007V6.4c0,0-1.04,0-1.242,0s-0.489,0.102-0.489,0.534v1.156h1.76
			L954.295,10.052z"/>
	</g>
	<rect id="area_4_" x="941.912" style="opacity:0;fill:#CCCCCC;" width="19.778" height="20.085"/>
</g>
<g id="sprite_x5F_logo">
	<g id="graphics_13_">
		<g>
			<g>
				<rect x="790.313" y="172.396" style="fill:#62625C;" width="4.36" height="32.687"/>
				<path style="fill:#62625C;" d="M770.074,172.287l-15.294,32.796h4.809l2.872-6.277h15.939l2.869,6.277h4.808l-15.294-32.796
					H770.074z M764.355,194.665l6.076-13.287l6.073,13.287H764.355z"/>
				<rect x="866.005" y="172.396" style="fill:#62625C;" width="4.356" height="32.687"/>
				<path style="fill:#62625C;" d="M845.958,172.287l-15.291,32.796h4.808l2.869-6.277h15.937l2.872,6.277h4.811l-15.294-32.796
					H845.958z M840.237,194.665l6.076-13.287l6.075,13.287H840.237z"/>
				<path style="fill:#62625C;" d="M830.134,187.747c-0.925,0-14.809,0-14.809,0v4.194H825.9c-1.256,5.247-5.514,9.109-10.575,9.109
					c-6.047,0-10.949-5.51-10.949-12.312c0-6.797,4.902-12.307,10.949-12.307c3.565,0,6.731,1.919,8.73,4.885l3.362-2.857
					c-2.814-3.89-7.182-6.388-12.092-6.388c-8.486,0-15.365,7.462-15.365,16.667c0,9.211,6.879,16.674,15.365,16.674
					c8.486,0,15.363-7.463,15.363-16.674C830.688,188.088,830.644,187.747,830.134,187.747z"/>
			</g>
			<g>
				<path style="fill:#62625C;" d="M815.742,65.097c0.202,0.022,0.401,0.032,0.601,0.032c0.199,0,0.398-0.01,0.6-0.032
					c3.169-0.332,5.467-3.171,5.137-6.338l-5.737-54.558l-5.734,54.558C810.276,61.926,812.577,64.765,815.742,65.097z"/>
				<circle style="fill:#62625C;" cx="816.344" cy="80.589" r="7.986"/>
				<path style="fill:#62625C;" d="M816.944,96.079c-0.202-0.02-0.401-0.03-0.6-0.03c-0.2,0-0.399,0.009-0.601,0.03
					c-3.165,0.332-5.466,3.171-5.133,6.34l5.734,54.557l5.737-54.557C822.411,99.25,820.113,96.411,816.944,96.079z"/>
				<path style="fill:#62625C;" d="M800.853,81.189c0.021-0.202,0.03-0.402,0.03-0.6c0-0.2-0.008-0.401-0.03-0.603
					c-0.333-3.169-3.172-5.465-6.338-5.132l-54.559,5.734l54.559,5.733C797.681,86.656,800.52,84.358,800.853,81.189z"/>
				<path style="fill:#62625C;" d="M831.833,79.986c-0.018,0.201-0.029,0.402-0.029,0.603c0,0.198,0.011,0.398,0.029,0.602
					c0.333,3.167,3.173,5.465,6.338,5.131l54.559-5.733l-54.559-5.734C835.006,74.522,832.167,76.818,831.833,79.986z"/>
				<path style="fill:#62625C;" d="M804.965,70.061c0.158-0.129,0.306-0.265,0.447-0.406c0.142-0.14,0.276-0.29,0.405-0.447
					c2.005-2.476,1.621-6.107-0.851-8.111l-42.634-34.524l34.522,42.632C798.859,71.682,802.489,72.064,804.965,70.061z"/>
				<path style="fill:#62625C;" d="M827.725,91.116c-0.158,0.127-0.307,0.262-0.449,0.405c-0.14,0.139-0.274,0.289-0.405,0.448
					c-2.003,2.476-1.618,6.105,0.854,8.109l42.633,34.524l-34.526-42.632C833.831,89.493,830.197,89.114,827.725,91.116z"/>
				<path style="fill:#62625C;" d="M805.412,91.521c-0.141-0.142-0.289-0.277-0.447-0.405c-2.476-2.003-6.106-1.623-8.112,0.853
					l-34.522,42.632l42.634-34.524c2.472-2.004,2.856-5.633,0.851-8.109C805.688,91.811,805.554,91.66,805.412,91.521z"/>
				<path style="fill:#62625C;" d="M827.276,69.656c0.142,0.141,0.291,0.276,0.449,0.406c2.472,2.003,6.109,1.621,8.107-0.855
					l34.526-42.632l-42.633,34.524c-2.472,2.004-2.857,5.635-0.854,8.111C827.002,69.366,827.136,69.516,827.276,69.656z"/>
			</g>
			<g>
				<path style="fill:#62625C;" d="M718.705,217.135h-2.452v-1.154h6.201v1.154h-2.452v7.1h-1.298V217.135z"/>
				<path style="fill:#62625C;" d="M729.176,215.981h1.3v8.254h-1.3v-3.446h-3.955v3.446h-1.3v-8.254h1.3v3.653h3.955V215.981z"/>
				<path style="fill:#62625C;" d="M732.782,215.981h5.258v1.154h-3.958v2.367h3.505v1.128h-3.505v2.452h4.125v1.154h-5.425V215.981
					z"/>
				<path style="fill:#62625C;" d="M744.446,224.235h-1.297v-8.254h2.645c1.928,0,3.035,1.055,3.035,2.621
					c0,1.154-0.571,1.98-1.601,2.355l1.988,3.278h-1.42l-1.845-3.048h-0.158h-1.348V224.235z M745.746,220.07
					c1.226,0,1.735-0.485,1.735-1.469c0-0.993-0.521-1.467-1.735-1.467h-1.3v2.936H745.746z"/>
				<path style="fill:#62625C;" d="M750.299,220.107c0-2.438,1.893-4.235,4.261-4.235c2.363,0,4.261,1.797,4.261,4.235
					c0,2.441-1.898,4.237-4.261,4.237C752.191,224.344,750.299,222.547,750.299,220.107z M757.47,220.107
					c0-1.746-1.203-3.057-2.911-3.057c-1.713,0-2.916,1.312-2.916,3.057c0,1.749,1.202,3.06,2.916,3.06
					C756.268,223.167,757.47,221.856,757.47,220.107z"/>
				<path style="fill:#62625C;" d="M759.243,215.981h1.434l2.113,3.702l2.071-3.702h1.362l-2.805,4.953v3.301h-1.297v-3.292
					L759.243,215.981z"/>
				<path style="fill:#62625C;" d="M771.229,222.691h-3.351l-0.643,1.544h-1.31l3.615-8.422h0.075l3.627,8.422h-1.372
					L771.229,222.691z M768.354,221.553h2.401l-1.187-2.888L768.354,221.553z"/>
				<path style="fill:#62625C;" d="M774.698,215.981h1.297v7.1h3.642v1.154h-4.939V215.981z"/>
				<path style="fill:#62625C;" d="M783.973,220.107c0-2.438,1.856-4.235,4.21-4.235c1.53,0,2.589,0.596,3.303,1.603l-0.993,0.702
					c-0.548-0.739-1.25-1.127-2.345-1.127c-1.637,0-2.827,1.312-2.827,3.057c0,1.786,1.214,3.06,2.874,3.06
					c1.071,0,1.857-0.399,2.476-1.203l1.008,0.693c-0.848,1.128-1.931,1.687-3.531,1.687
					C785.79,224.344,783.973,222.547,783.973,220.107z"/>
				<path style="fill:#62625C;" d="M797.907,222.691h-3.35l-0.643,1.544h-1.31l3.619-8.422h0.071l3.63,8.422h-1.374L797.907,222.691
					z M795.032,221.553h2.405l-1.191-2.888L795.032,221.553z"/>
				<path style="fill:#62625C;" d="M802.676,224.235h-1.3v-8.254h2.625c1.928,0,3.035,1.068,3.035,2.671
					c0,1.639-1.12,2.669-3.035,2.669h-1.325V224.235z M803.953,220.167c1.226,0,1.731-0.508,1.731-1.515
					c0-1.021-0.517-1.517-1.731-1.517h-1.277v3.032H803.953z"/>
				<path style="fill:#62625C;" d="M808.69,215.981h1.3v8.254h-1.3V215.981z"/>
				<path style="fill:#62625C;" d="M813.909,217.135h-2.452v-1.154h6.201v1.154h-2.452v7.1h-1.298V217.135z"/>
				<path style="fill:#62625C;" d="M822.788,222.691h-3.351l-0.646,1.544h-1.311l3.618-8.422h0.074l3.628,8.422h-1.37
					L822.788,222.691z M819.908,221.553h2.404l-1.19-2.888L819.908,221.553z"/>
				<path style="fill:#62625C;" d="M826.257,215.981h1.298v7.1h3.642v1.154h-4.94V215.981z"/>
				<path style="fill:#62625C;" d="M835.53,220.107c0-2.438,1.891-4.235,4.26-4.235s4.261,1.797,4.261,4.235
					c0,2.441-1.893,4.237-4.261,4.237S835.53,222.547,835.53,220.107z M842.703,220.107c0-1.746-1.201-3.057-2.913-3.057
					c-1.711,0-2.912,1.312-2.912,3.057c0,1.749,1.201,3.06,2.912,3.06C841.502,223.167,842.703,221.856,842.703,220.107z"/>
				<path style="fill:#62625C;" d="M845.92,215.981h5.144v1.154h-3.847v2.597h3.509v1.154h-3.509v3.35h-1.297V215.981z"/>
				<path style="fill:#62625C;" d="M855.894,215.813h0.063l4.029,4.648l3.984-4.648h0.06v8.422h-1.226v-5.352l-2.818,3.361h-0.059
					l-2.803-3.361v5.352h-1.23V215.813z"/>
				<path style="fill:#62625C;" d="M870.795,222.691h-3.35l-0.643,1.544h-1.309l3.615-8.422h0.075l3.629,8.422h-1.374
					L870.795,222.691z M867.918,221.553h2.404l-1.187-2.888L867.918,221.553z"/>
				<path style="fill:#62625C;" d="M873.414,220.107c0-2.438,1.857-4.235,4.21-4.235c1.53,0,2.586,0.596,3.303,1.603l-0.997,0.702
					c-0.547-0.739-1.249-1.127-2.341-1.127c-1.64,0-2.83,1.312-2.83,3.057c0,1.786,1.215,3.06,2.878,3.06
					c1.069,0,1.86-0.399,2.479-1.203l1.005,0.693c-0.85,1.128-1.928,1.687-3.531,1.687
					C875.234,224.344,873.414,222.547,873.414,220.107z"/>
				<path style="fill:#62625C;" d="M882.721,215.981h5.258v1.154h-3.958v2.367h3.509v1.128h-3.509v2.452h4.127v1.154h-5.427V215.981
					z"/>
				<path style="fill:#62625C;" d="M889.999,215.981h2.332c2.69,0,4.344,1.688,4.344,4.126c0,2.441-1.639,4.128-4.344,4.128h-2.332
					V215.981z M892.254,223.081c2.14,0,3.071-1.225,3.071-2.975c0-1.746-0.931-2.972-3.071-2.972h-0.957v5.947H892.254z"/>
				<path style="fill:#62625C;" d="M898.099,220.107c0-2.438,1.892-4.235,4.261-4.235c2.365,0,4.261,1.797,4.261,4.235
					c0,2.441-1.896,4.237-4.261,4.237C899.991,224.344,898.099,222.547,898.099,220.107z M905.269,220.107
					c0-1.746-1.199-3.057-2.91-3.057c-1.714,0-2.917,1.312-2.917,3.057c0,1.749,1.203,3.06,2.917,3.06
					C904.07,223.167,905.269,221.856,905.269,220.107z"/>
				<path style="fill:#62625C;" d="M909.7,218.81v5.425h-1.217v-8.376h0.102l5.29,5.547v-5.425h1.214v8.376h-0.096L909.7,218.81z"/>
			</g>
		</g>
	</g>
	<rect id="area_3_" x="713.412" style="opacity:0;fill:#CCCCCC;" width="204.5" height="228.485"/>
</g>
<g id="sprite_x5F_title">
	<g id="graphics_4_">
		<g>
			<path style="fill:#62625C;" d="M135.965,41.399H121.49l-3.149,7.896h-3.102l13.441-32.71h0.235l13.488,32.71h-3.243
				L135.965,41.399z M122.618,38.673h12.219l-6.11-15.18L122.618,38.673z"/>
			<path style="fill:#62625C;" d="M147.739,17.337h3.055v29.232h14.851v2.726h-17.906V17.337z"/>
			<path style="fill:#62625C;" d="M171.046,17.337h19.269v2.726h-16.214v11.796h14.475v2.679h-14.475v12.031h16.872v2.726h-19.927
				V17.337z"/>
			<path style="fill:#62625C;" d="M197.38,17.337h3.478l7.661,11.937l7.66-11.937h3.29l-9.305,14.475l11.232,17.483h-3.478
				l-9.493-14.757l-9.493,14.757h-3.29L206.779,32L197.38,17.337z"/>
			<path style="fill:#62625C;" d="M246.352,41.399h-14.475l-3.149,7.896h-3.102l13.441-32.71h0.235l13.488,32.71h-3.243
				L246.352,41.399z M233.005,38.673h12.219l-6.11-15.18L233.005,38.673z"/>
			<path style="fill:#62625C;" d="M260.993,24.151v25.143h-2.867V16.679h0.282l21.525,25.801V17.337h2.867v32.616h-0.282
				L260.993,24.151z"/>
			<path style="fill:#62625C;" d="M291.491,17.337h7.99c10.574,0,16.872,6.533,16.872,15.979c0,9.446-6.251,15.979-16.872,15.979
				h-7.99V17.337z M299.199,46.522c9.447,0,13.958-5.452,13.958-13.206c0-7.755-4.512-13.206-13.958-13.206h-4.653v26.412H299.199z"
				/>
			<path style="fill:#62625C;" d="M323.117,17.337h19.269v2.726h-16.214v11.796h14.475v2.679h-14.475v12.031h16.872v2.726h-19.927
				V17.337z"/>
			<path style="fill:#62625C;" d="M351.876,49.295h-3.055V17.337h9.54c6.909,0,10.668,4.136,10.668,9.54
				c0,4.324-2.444,7.707-6.909,8.883l8.413,13.535h-3.431L359.02,36.23h-0.752h-6.392V49.295z M358.174,33.551
				c5.217,0,7.661-2.585,7.661-6.674c0-4.136-2.491-6.815-7.661-6.815h-6.297v13.488H358.174z"/>
			<path style="fill:#62625C;" d="M395.82,20.063h-9.916v-2.726h22.841v2.726h-9.869v29.232h-3.055V20.063z"/>
			<path style="fill:#62625C;" d="M434.434,17.337h3.055v31.958h-3.055V34.82h-17.436v14.475h-3.055V17.337h3.055v14.757h17.436
				V17.337z"/>
			<path style="fill:#62625C;" d="M446.18,17.337h19.269v2.726h-16.214v11.796h14.475v2.679h-14.475v12.031h16.872v2.726H446.18
				V17.337z"/>
			<path style="fill:#62625C;" d="M483.262,33.316c0-9.446,7.238-16.355,16.214-16.355c5.593,0,9.305,1.974,12.031,4.982
				l-2.162,2.021c-2.209-2.444-5.029-4.23-9.964-4.23c-7.425,0-12.924,5.828-12.924,13.582c0,7.754,5.593,13.582,13.488,13.582
				c4.7,0,7.66-1.363,9.728-3.102v-7.332h-9.634v-2.726h12.548v11.467c-2.914,2.585-6.627,4.465-12.642,4.465
				C490.547,49.671,483.262,42.809,483.262,33.316z"/>
			<path style="fill:#62625C;" d="M523.16,49.295h-3.055V17.337h9.54c6.909,0,10.668,4.136,10.668,9.54
				c0,4.324-2.444,7.707-6.909,8.883l8.413,13.535h-3.431l-8.083-13.065h-0.752h-6.392V49.295z M529.457,33.551
				c5.217,0,7.661-2.585,7.661-6.674c0-4.136-2.491-6.815-7.661-6.815h-6.297v13.488H529.457z"/>
			<path style="fill:#62625C;" d="M547.666,17.337h19.268v2.726H550.72v11.796h14.475v2.679H550.72v12.031h16.872v2.726h-19.927
				V17.337z"/>
			<path style="fill:#62625C;" d="M592.831,41.399h-14.475l-3.149,7.896h-3.102l13.441-32.71h0.235l13.488,32.71h-3.243
				L592.831,41.399z M579.484,38.673h12.219l-6.11-15.18L579.484,38.673z"/>
			<path style="fill:#62625C;" d="M607.876,20.063h-9.916v-2.726h22.84v2.726h-9.869v29.232h-3.055V20.063z"/>
			<path style="fill:#62625C;" d="M53.55,72.156c0-4.22,3.275-7.307,7.328-7.307c4.052,0,7.328,3.086,7.328,7.307
				c0,4.22-3.275,7.307-7.328,7.307C56.825,79.463,53.55,76.377,53.55,72.156z M66.777,72.156c0-3.464-2.498-6.068-5.9-6.068
				c-3.401,0-5.9,2.604-5.9,6.068c0,3.464,2.499,6.068,5.9,6.068C64.279,78.224,66.777,75.621,66.777,72.156z"/>
			<path style="fill:#62625C;" d="M74.228,68.062v11.233h-1.281V64.724h0.126l9.616,11.527V65.018h1.281v14.571h-0.126
				L74.228,68.062z"/>
			<path style="fill:#62625C;" d="M89.594,65.018h1.365v13.06h6.635v1.218h-7.999V65.018z"/>
			<path style="fill:#62625C;" d="M101.801,65.018h1.386v14.277h-1.386V65.018z"/>
			<path style="fill:#62625C;" d="M110.091,68.062v11.233h-1.281V64.724h0.126l9.616,11.527V65.018h1.281v14.571h-0.126
				L110.091,68.062z"/>
			<path style="fill:#62625C;" d="M125.457,65.018h8.608v1.218h-7.244v5.27h6.467v1.197h-6.467v5.375h7.538v1.218h-8.902V65.018z"/>
			<path style="fill:#62625C;" d="M144.924,65.018h1.47l4.619,11.485l4.64-11.485h1.407l-6.026,14.571h-0.084L144.924,65.018z"/>
			<path style="fill:#62625C;" d="M161.238,65.018h1.386v14.277h-1.386V65.018z"/>
			<path style="fill:#62625C;" d="M169.612,79.295h-1.365V65.018h4.262c3.086,0,4.766,1.848,4.766,4.262
				c0,1.932-1.092,3.443-3.086,3.968l3.758,6.047h-1.533l-3.611-5.837h-0.336h-2.855V79.295z M172.426,72.261
				c2.331,0,3.422-1.155,3.422-2.981c0-1.848-1.113-3.044-3.422-3.044h-2.814v6.026H172.426z"/>
			<path style="fill:#62625C;" d="M185.053,66.235h-4.43v-1.218h10.204v1.218h-4.409v13.06h-1.365V66.235z"/>
			<path style="fill:#62625C;" d="M194.85,74.445v-9.427h1.365v9.322c0,2.583,1.449,3.884,3.674,3.884
				c2.247,0,3.674-1.302,3.674-3.884v-9.322h1.365v9.427c0,3.317-2.163,5.018-5.039,5.018
				C197.013,79.463,194.85,77.762,194.85,74.445z"/>
			<path style="fill:#62625C;" d="M217.699,75.768h-6.467l-1.407,3.527h-1.386l6.005-14.613h0.105l6.026,14.613h-1.449
				L217.699,75.768z M211.736,74.55h5.459l-2.729-6.782L211.736,74.55z"/>
			<path style="fill:#62625C;" d="M224.712,65.018h1.365v13.06h6.635v1.218h-7.999V65.018z"/>
			<path style="fill:#62625C;" d="M244.116,64.724h0.084l6.719,8.314l6.677-8.314h0.105v14.571h-1.302V68.083l-5.48,6.887h-0.084
				l-5.417-6.887v11.212h-1.302V64.724z"/>
			<path style="fill:#62625C;" d="M263.255,74.445v-9.427h1.365v9.322c0,2.583,1.449,3.884,3.674,3.884
				c2.247,0,3.674-1.302,3.674-3.884v-9.322h1.365v9.427c0,3.317-2.163,5.018-5.039,5.018
				C265.418,79.463,263.255,77.762,263.255,74.445z"/>
			<path style="fill:#62625C;" d="M278.682,75.978c0.756,1.428,2.058,2.247,3.737,2.247c1.953,0,3.107-0.966,3.107-2.457
				c0-1.575-0.966-2.268-2.688-3.065l-1.155-0.546c-2.058-0.966-3.317-1.911-3.317-3.905c0-2.037,1.596-3.401,3.737-3.401
				c1.848,0,3.065,0.672,3.947,2.1l-1.05,0.672c-0.63-1.071-1.554-1.575-2.876-1.575c-1.449,0-2.415,0.903-2.415,2.163
				c0,1.365,0.777,1.89,2.52,2.709l1.134,0.546c2.289,1.071,3.527,2.121,3.527,4.262c0,2.352-1.785,3.737-4.451,3.737
				c-2.331,0-3.989-1.134-4.913-2.877L278.682,75.978z"/>
			<path style="fill:#62625C;" d="M291.573,65.018h8.608v1.218h-7.244v5.27h6.467v1.197h-6.467v5.375h7.538v1.218h-8.902V65.018z"/>
			<path style="fill:#62625C;" d="M304.619,74.445v-9.427h1.365v9.322c0,2.583,1.449,3.884,3.674,3.884
				c2.247,0,3.674-1.302,3.674-3.884v-9.322h1.365v9.427c0,3.317-2.163,5.018-5.039,5.018S304.619,77.762,304.619,74.445z"/>
			<path style="fill:#62625C;" d="M320.23,64.724h0.084l6.719,8.314l6.677-8.314h0.105v14.571h-1.302V68.083l-5.48,6.887h-0.084
				l-5.417-6.887v11.212h-1.302V64.724z"/>
			<path style="fill:#62625C;" d="M353.324,75.138c0.378-0.987,0.588-2.205,0.588-3.611h1.26c0,1.869-0.357,3.443-0.966,4.682
				l2.499,3.086h-1.68l-1.554-1.911c-1.071,1.344-2.604,2.079-4.388,2.079c-2.708,0-4.64-1.575-4.64-3.968
				c0-2.373,1.701-3.506,3.695-4.661l-0.252-0.315c-0.819-1.008-1.134-1.89-1.134-2.792c0-1.617,1.197-2.877,3.003-2.877
				c1.764,0,2.855,1.218,2.855,2.835c0,1.386-1.05,2.436-2.582,3.38L353.324,75.138z M348.873,71.736
				c-1.785,1.008-3.023,1.911-3.023,3.758c0,1.701,1.365,2.771,3.233,2.771c1.533,0,2.75-0.651,3.59-1.869L348.873,71.736z
				 M351.309,67.684c0-0.945-0.588-1.659-1.554-1.659c-1.029,0-1.68,0.714-1.68,1.701c0,0.735,0.336,1.365,0.84,1.995l0.378,0.462
				C350.49,69.469,351.309,68.776,351.309,67.684z"/>
			<path style="fill:#62625C;" d="M367.017,65.018h1.386v14.277h-1.386V65.018z"/>
			<path style="fill:#62625C;" d="M375.308,68.062v11.233h-1.281V64.724h0.126l9.616,11.527V65.018h1.281v14.571h-0.126
				L375.308,68.062z"/>
			<path style="fill:#62625C;" d="M393.567,66.235h-4.43v-1.218h10.204v1.218h-4.409v13.06h-1.365V66.235z"/>
			<path style="fill:#62625C;" d="M403.414,65.018h8.608v1.218h-7.244v5.27h6.467v1.197h-6.467v5.375h7.538v1.218h-8.902V65.018z"/>
			<path style="fill:#62625C;" d="M418.025,79.295h-1.365V65.018h4.262c3.087,0,4.766,1.848,4.766,4.262
				c0,1.932-1.092,3.443-3.086,3.968l3.758,6.047h-1.533l-3.611-5.837h-0.336h-2.855V79.295z M420.839,72.261
				c2.331,0,3.422-1.155,3.422-2.981c0-1.848-1.113-3.044-3.422-3.044h-2.814v6.026H420.839z"/>
			<path style="fill:#62625C;" d="M439.156,75.768h-6.467l-1.407,3.527h-1.386l6.005-14.613h0.105l6.026,14.613h-1.449
				L439.156,75.768z M433.193,74.55h5.459l-2.729-6.782L433.193,74.55z"/>
			<path style="fill:#62625C;" d="M444.641,72.156c0-4.241,3.17-7.307,7.223-7.307c2.415,0,4.325,0.987,5.606,2.667l-1.05,0.756
				c-1.071-1.386-2.583-2.184-4.577-2.184c-3.317,0-5.774,2.604-5.774,6.068c0,3.506,2.499,6.068,5.879,6.068
				c2.058,0,3.716-0.861,4.85-2.373l1.071,0.756c-1.407,1.848-3.401,2.855-5.963,2.855C447.811,79.463,444.62,76.398,444.641,72.156
				z"/>
			<path style="fill:#62625C;" d="M465.239,66.235h-4.43v-1.218h10.204v1.218h-4.409v13.06h-1.365V66.235z"/>
			<path style="fill:#62625C;" d="M475.128,65.018h1.386v14.277h-1.386V65.018z"/>
			<path style="fill:#62625C;" d="M480.66,65.018h1.47l4.619,11.485l4.64-11.485h1.407l-6.026,14.571h-0.084L480.66,65.018z"/>
			<path style="fill:#62625C;" d="M496.932,65.018h8.608v1.218h-7.244v5.27h6.467v1.197h-6.467v5.375h7.538v1.218h-8.902V65.018z"/>
			<path style="fill:#62625C;" d="M517.596,65.018h3.569c4.724,0,7.538,2.918,7.538,7.139c0,4.22-2.793,7.139-7.538,7.139h-3.569
				V65.018z M521.039,78.056c4.22,0,6.236-2.436,6.236-5.9c0-3.464-2.016-5.9-6.236-5.9h-2.078v11.8H521.039z"/>
			<path style="fill:#62625C;" d="M532.59,72.156c0-4.22,3.275-7.307,7.328-7.307c4.052,0,7.328,3.086,7.328,7.307
				c0,4.22-3.275,7.307-7.328,7.307C535.865,79.463,532.59,76.377,532.59,72.156z M545.817,72.156c0-3.464-2.499-6.068-5.9-6.068
				c-3.401,0-5.9,2.604-5.9,6.068c0,3.464,2.499,6.068,5.9,6.068C543.319,78.224,545.817,75.621,545.817,72.156z"/>
			<path style="fill:#62625C;" d="M551.063,72.156c0-4.241,3.17-7.307,7.223-7.307c2.414,0,4.325,0.987,5.606,2.667l-1.05,0.756
				c-1.071-1.386-2.583-2.184-4.577-2.184c-3.317,0-5.774,2.604-5.774,6.068c0,3.506,2.498,6.068,5.879,6.068
				c2.058,0,3.716-0.861,4.85-2.373l1.071,0.756c-1.407,1.848-3.401,2.855-5.963,2.855
				C554.234,79.463,551.042,76.398,551.063,72.156z"/>
			<path style="fill:#62625C;" d="M568.375,74.445v-9.427h1.365v9.322c0,2.583,1.449,3.884,3.674,3.884
				c2.247,0,3.674-1.302,3.674-3.884v-9.322h1.365v9.427c0,3.317-2.163,5.018-5.039,5.018
				C570.538,79.463,568.375,77.762,568.375,74.445z"/>
			<path style="fill:#62625C;" d="M583.987,64.724h0.084l6.719,8.314l6.677-8.314h0.105v14.571h-1.302V68.083l-5.48,6.887h-0.084
				l-5.417-6.887v11.212h-1.302V64.724z"/>
			<path style="fill:#62625C;" d="M603.21,65.018h8.608v1.218h-7.244v5.27h6.467v1.197h-6.467v5.375h7.538v1.218h-8.902V65.018z"/>
			<path style="fill:#62625C;" d="M617.737,68.062v11.233h-1.281V64.724h0.126l9.616,11.527V65.018h1.281v14.571h-0.126
				L617.737,68.062z"/>
			<path style="fill:#62625C;" d="M635.997,66.235h-4.43v-1.218h10.204v1.218h-4.409v13.06h-1.365V66.235z"/>
			<path style="fill:#62625C;" d="M652.266,75.768h-6.467l-1.407,3.527h-1.386l6.005-14.613h0.105l6.026,14.613h-1.449
				L652.266,75.768z M646.303,74.55h5.459l-2.73-6.782L646.303,74.55z"/>
			<path style="fill:#62625C;" d="M660.644,79.295h-1.365V65.018h4.262c3.086,0,4.766,1.848,4.766,4.262
				c0,1.932-1.092,3.443-3.086,3.968l3.758,6.047h-1.533l-3.611-5.837H663.5h-2.855V79.295z M663.458,72.261
				c2.331,0,3.422-1.155,3.422-2.981c0-1.848-1.113-3.044-3.422-3.044h-2.813v6.026H663.458z"/>
			<path style="fill:#62625C;" d="M671.336,65.018h1.533l4.157,7.181l4.157-7.181h1.47l-4.934,8.545v5.732h-1.386v-5.711
				L671.336,65.018z"/>
		</g>
	</g>
	<rect id="area_1_" x="44.912" style="opacity:0;fill:#CCCCCC;" width="644.5" height="91"/>
</g>
<g id="sprite_x5F_logo-small">
	<g id="graphics_1_">
		<path style="fill:#585852;" d="M10.186,7.972c0.026,0.003,0.052,0.004,0.079,0.004c0.026,0,0.052-0.002,0.078-0.004
			c0.415-0.043,0.716-0.415,0.672-0.83L10.264,0L9.514,7.142C9.47,7.557,9.771,7.929,10.186,7.972z M10.264,8.955
			c-0.578,0-1.046,0.468-1.046,1.045c0,0.577,0.468,1.046,1.046,1.046c0.577,0,1.046-0.469,1.046-1.046
			C11.31,9.423,10.842,8.955,10.264,8.955z M10.343,12.028c-0.026-0.002-0.052-0.004-0.078-0.004c-0.026,0-0.052,0.002-0.079,0.004
			c-0.414,0.043-0.715,0.415-0.672,0.83L10.264,20l0.751-7.142C11.059,12.443,10.758,12.071,10.343,12.028z M8.236,10.079
			C8.239,10.052,8.241,10.026,8.241,10c0-0.026-0.001-0.052-0.004-0.079C8.192,9.507,7.821,9.206,7.407,9.25L0.264,10l7.142,0.751
			C7.821,10.794,8.192,10.493,8.236,10.079z M12.292,9.921C12.29,9.948,12.288,9.974,12.288,10c0,0.026,0.002,0.052,0.004,0.079
			c0.044,0.415,0.415,0.715,0.83,0.672L20.264,10l-7.143-0.75C12.708,9.206,12.336,9.507,12.292,9.921z M8.775,8.622
			c0.02-0.017,0.04-0.035,0.058-0.054C8.852,8.551,8.869,8.531,8.886,8.51c0.263-0.324,0.212-0.8-0.111-1.062L3.194,2.929
			L7.713,8.51C7.975,8.834,8.451,8.884,8.775,8.622z M11.754,11.378c-0.02,0.016-0.04,0.034-0.059,0.053
			c-0.018,0.018-0.036,0.038-0.053,0.059c-0.262,0.324-0.212,0.799,0.112,1.061l5.581,4.52l-4.52-5.581
			C12.554,11.166,12.078,11.116,11.754,11.378z M8.834,11.431c-0.019-0.019-0.038-0.037-0.058-0.053
			c-0.324-0.262-0.8-0.213-1.062,0.112l-4.519,5.581l5.582-4.52c0.323-0.262,0.374-0.737,0.111-1.061
			C8.869,11.469,8.852,11.45,8.834,11.431z M11.696,8.569c0.019,0.019,0.039,0.036,0.059,0.054c0.324,0.262,0.799,0.212,1.061-0.112
			l4.52-5.581l-5.581,4.519c-0.324,0.262-0.374,0.738-0.112,1.062C11.66,8.531,11.677,8.551,11.696,8.569z"/>
	</g>
	<rect id="area_2_" style="opacity:0;fill:#CCCCCC;" width="20.912" height="20"/>
</g>
</svg>
