<?xml version="1.0" encoding="iso-8859-1"?>
<!-- Generator: Adobe Illustrator 18.0.0, SVG Export Plug-In . SVG Version: 6.00 Build 0)  -->
<!DOCTYPE svg PUBLIC "-//W3C//DTD SVG 1.1//EN" "http://www.w3.org/Graphics/SVG/1.1/DTD/svg11.dtd">
<svg version="1.1" xmlns="http://www.w3.org/2000/svg" xmlns:xlink="http://www.w3.org/1999/xlink" x="0px" y="0px"
	 viewBox="0 0 1422.274 353.485" style="enable-background:new 0 0 1422.274 353.485;" xml:space="preserve">
<g id="sprite_x5F_speaker">
	<g id="graphics_5_">
		<g>
			<polygon style="fill:#A7A79C;" points="729.676,132.489 729.676,137.689 732.926,137.689 736.826,141.589 736.826,128.589 
				732.926,132.489 			"/>
		</g>
		<path style="fill:none;stroke:#A7A79C;stroke-miterlimit:10;" d="M739.401,131.023l0.342,0.916c0.854,2.285,0.854,4.801,0,7.085
			l-0.342,0.916"/>
		<path style="fill:none;stroke:#A7A79C;stroke-miterlimit:10;" d="M742.914,129.898l0.419,1.121c1.046,2.797,1.046,5.877,0,8.674
			l-0.419,1.121"/>
	</g>
	<rect id="area_8_" x="727.448" y="125" style="opacity:0;fill:#CCCCCC;" width="19.778" height="20.085"/>
</g>
<g id="sprite_x5F_speaker-muted">
	<g id="graphics_14_">
		<g>
			<polygon style="fill:#A7A79C;" points="689.898,132.489 689.898,137.689 693.148,137.689 697.048,141.589 697.048,128.589 
				693.148,132.489 			"/>
		</g>
	</g>
	<rect id="area_18_" x="683.67" y="125" style="opacity:0;fill:#CCCCCC;" width="19.778" height="20.085"/>
</g>
<g id="sprite_x5F_arrow-down">
	<g id="graphics_9_">
		<polygon style="fill:#808079;" points="653.17,133.928 658.17,125.928 648.17,125.928 		"/>
	</g>
	<rect id="area_13_" x="647.42" y="125" style="opacity:0;fill:#CCCCCC;" width="12.25" height="9.75"/>
</g>
<g id="sprite_x5F_check">
	<g id="graphics_12_">
		<polyline style="fill:none;stroke:#808079;" points="608.044,133.336 613.044,141.336 622.668,127.939 		"/>
	</g>
	<rect id="area_17_" x="606.362" y="125" style="opacity:0;fill:#CCCCCC;" width="17.058" height="17.291"/>
</g>
<g id="sprite_x5F_previous-small">
	<g id="graphics_11_">
		<polyline style="fill:none;stroke:#9D9D93;" points="581.05,125.803 576.05,130.803 581.05,135.803 		"/>
	</g>
	<rect id="area_11_" x="574.8" y="125" style="opacity:0;fill:#CCCCCC;" width="7.562" height="11.625"/>
</g>
<g id="sprite_x5F_next-small">
	<g id="graphics_copy">
		<polyline style="fill:none;stroke:#9D9D93;" points="544.487,135.803 549.487,130.803 544.487,125.803 		"/>
	</g>
	<rect id="area_16_" x="543.237" y="125" style="opacity:0;fill:#CCCCCC;" width="7.562" height="11.625"/>
</g>
<g id="sprite_x5F_arrow-up">
	<g id="graphics_10_">
		<polygon style="fill:#808079;" points="518.362,130.803 510.362,125.803 510.362,135.803 		"/>
	</g>
	<rect id="area_14_" x="509.612" y="125" style="opacity:0;fill:#CCCCCC;" width="9.625" height="11.625"/>
</g>
<g id="sprite_x5F_twitter">
	<g id="graphics">
		<path style="fill:#58584F;" d="M475.724,126.043c-4.971,0-9,4.031-9,9.001c0,4.97,4.03,8.999,9,8.999c4.971,0,9-4.029,9-8.999
			C484.723,130.073,480.694,126.043,475.724,126.043z M480.258,133.229c0.004,0.097,0.006,0.195,0.006,0.293
			c0,2.998-2.281,6.454-6.453,6.454c-1.281,0-2.473-0.375-3.477-1.019c0.178,0.02,0.358,0.031,0.541,0.031
			c1.063,0,2.041-0.363,2.817-0.971c-0.992-0.018-1.83-0.674-2.119-1.575c0.138,0.027,0.281,0.041,0.427,0.041
			c0.207,0,0.407-0.027,0.597-0.079c-1.038-0.208-1.82-1.126-1.82-2.224c0-0.01,0-0.019,0-0.029c0.306,0.17,0.656,0.272,1.028,0.284
			c-0.609-0.408-1.009-1.101-1.009-1.888c0-0.416,0.112-0.805,0.307-1.14c1.119,1.372,2.79,2.275,4.676,2.37
			c-0.039-0.166-0.059-0.339-0.059-0.517c0-1.253,1.016-2.268,2.268-2.268c0.653,0,1.242,0.276,1.656,0.716
			c0.517-0.101,1.002-0.291,1.441-0.55c-0.17,0.53-0.529,0.974-0.998,1.255c0.459-0.055,0.896-0.177,1.303-0.357
			C481.086,132.509,480.701,132.909,480.258,133.229z"/>
	</g>
	<rect id="area_6_" x="465.834" y="125" style="opacity:0;fill:#CCCCCC;" width="19.778" height="20.085"/>
</g>
<g id="sprite_x5F_previous">
	<g id="graphics_7_">
		<polyline style="fill:none;stroke:#777770;" points="439.834,127.5 414.834,165 439.834,202.5 		"/>
	</g>
	<rect id="area_9_" x="412.834" y="125" style="opacity:0;fill:#CCCCCC;" width="29" height="80"/>
</g>
<g id="sprite_x5F_next">
	<g id="graphics_8_">
		<polyline style="fill:none;stroke:#777770;" points="361.834,202.5 386.834,165 361.834,127.5 		"/>
	</g>
	<rect id="area_12_" x="359.834" y="125" style="opacity:0;fill:#CCCCCC;" width="29" height="80"/>
</g>
<g id="sprite_x5F_twitter-hover">
	<g id="graphics_3_">
		<path style="fill:#58584F;" d="M325.946,126.043c-4.971,0-9,4.031-9,9.001c0,4.97,4.029,8.999,9,8.999c4.971,0,9-4.029,9-8.999
			C334.945,130.073,330.916,126.043,325.946,126.043z M330.48,133.229c0.004,0.097,0.006,0.195,0.006,0.293
			c0,2.998-2.281,6.454-6.453,6.454c-1.281,0-2.473-0.375-3.477-1.019c0.178,0.02,0.358,0.031,0.541,0.031
			c1.063,0,2.041-0.363,2.817-0.971c-0.992-0.018-1.83-0.674-2.119-1.575c0.138,0.027,0.28,0.041,0.427,0.041
			c0.207,0,0.407-0.027,0.597-0.079c-1.038-0.208-1.82-1.126-1.82-2.224c0-0.01,0-0.019,0-0.029c0.306,0.17,0.656,0.272,1.028,0.284
			c-0.609-0.408-1.009-1.101-1.009-1.888c0-0.416,0.112-0.805,0.307-1.14c1.119,1.372,2.79,2.275,4.676,2.37
			c-0.039-0.166-0.059-0.339-0.059-0.517c0-1.253,1.016-2.268,2.268-2.268c0.653,0,1.242,0.276,1.656,0.716
			c0.517-0.101,1.002-0.291,1.441-0.55c-0.17,0.53-0.53,0.974-0.998,1.255c0.459-0.055,0.896-0.177,1.303-0.357
			C331.308,132.509,330.923,132.909,330.48,133.229z"/>
	</g>
	<rect id="area_7_" x="316.056" y="125" style="opacity:0;fill:#CCCCCC;" width="19.778" height="20.085"/>
</g>
<g id="sprite_x5F_facebook_1_">
	<g id="graphics_39_">
		<path style="fill:#58584F;" d="M282.279,126.089c-4.971,0-9.001,4.031-9.001,9.001c0,4.97,4.03,8.999,9.001,8.999s9-4.029,9-8.999
			C291.279,130.12,287.249,126.089,282.279,126.089z M284.661,135.052h-1.558c0,2.491,0,5.558,0,5.558h-2.311c0,0,0-3.036,0-5.558
			h-1.098v-1.962h1.098v-1.271c0-0.91,0.432-2.331,2.332-2.331l1.71,0.007v1.906c0,0-1.04,0-1.242,0s-0.489,0.102-0.489,0.534v1.156
			h1.76L284.661,135.052z"/>
	</g>
	<rect id="area_5_" x="272.278" y="125" style="opacity:0;fill:#CCCCCC;" width="19.778" height="20.085"/>
</g>
<g id="sprite_x5F_facebook-hover">
	<g id="graphics_2_">
		<path style="fill:#58584F;" d="M238.501,126.089c-4.971,0-9.001,4.031-9.001,9.001c0,4.97,4.03,8.999,9.001,8.999s9-4.029,9-8.999
			C247.501,130.12,243.471,126.089,238.501,126.089z M240.883,135.052h-1.558c0,2.491,0,5.558,0,5.558h-2.311c0,0,0-3.036,0-5.558
			h-1.098v-1.962h1.098v-1.271c0-0.91,0.432-2.331,2.332-2.331l1.71,0.007v1.906c0,0-1.04,0-1.242,0
			c-0.202,0-0.489,0.102-0.489,0.534v1.156h1.76L240.883,135.052z"/>
	</g>
	<rect id="area_4_" x="228.5" y="125" style="opacity:0;fill:#CCCCCC;" width="19.778" height="20.085"/>
</g>
<g id="sprite_x5F_logo">
	<g id="graphics_13_">
		<g>
			<g>
				<rect x="76.902" y="297.396" style="fill:#62625C;" width="4.36" height="32.687"/>
				<path style="fill:#62625C;" d="M56.662,297.287l-15.294,32.796h4.809l2.872-6.276h15.939l2.869,6.276h4.808l-15.294-32.796
					H56.662z M50.943,319.665l6.076-13.287l6.073,13.287H50.943z"/>
				<rect x="152.593" y="297.396" style="fill:#62625C;" width="4.356" height="32.687"/>
				<path style="fill:#62625C;" d="M132.547,297.287l-15.291,32.796h4.808l2.869-6.276h15.937l2.872,6.276h4.811l-15.294-32.796
					H132.547z M126.825,319.665l6.076-13.287l6.075,13.287H126.825z"/>
				<path style="fill:#62625C;" d="M116.722,312.747c-0.925,0-14.809,0-14.809,0v4.194h10.575
					c-1.256,5.247-5.514,9.109-10.575,9.109c-6.047,0-10.949-5.51-10.949-12.312c0-6.797,4.902-12.307,10.949-12.307
					c3.565,0,6.731,1.919,8.73,4.885l3.362-2.857c-2.814-3.89-7.182-6.388-12.092-6.388c-8.486,0-15.365,7.462-15.365,16.668
					c0,9.211,6.879,16.674,15.365,16.674s15.363-7.463,15.363-16.674C117.276,313.088,117.232,312.747,116.722,312.747z"/>
			</g>
			<g>
				<path style="fill:#62625C;" d="M102.33,190.097c0.202,0.022,0.401,0.032,0.601,0.032c0.199,0,0.398-0.01,0.6-0.032
					c3.169-0.332,5.467-3.171,5.136-6.338l-5.736-54.558l-5.734,54.558C96.865,186.926,99.165,189.765,102.33,190.097z"/>
				<circle style="fill:#62625C;" cx="102.932" cy="205.589" r="7.986"/>
				<path style="fill:#62625C;" d="M103.532,221.079c-0.202-0.02-0.401-0.03-0.6-0.03c-0.2,0-0.399,0.009-0.601,0.03
					c-3.165,0.332-5.466,3.171-5.133,6.34l5.734,54.557l5.736-54.557C108.999,224.25,106.701,221.411,103.532,221.079z"/>
				<path style="fill:#62625C;" d="M87.441,206.189c0.021-0.202,0.03-0.402,0.03-0.6c0-0.2-0.008-0.401-0.03-0.603
					c-0.333-3.169-3.172-5.465-6.338-5.132l-54.559,5.734l54.559,5.733C84.269,211.656,87.108,209.358,87.441,206.189z"/>
				<path style="fill:#62625C;" d="M118.422,204.986c-0.018,0.201-0.029,0.402-0.029,0.603c0,0.198,0.011,0.398,0.029,0.602
					c0.333,3.167,3.173,5.465,6.338,5.131l54.559-5.733l-54.559-5.734C121.594,199.522,118.755,201.818,118.422,204.986z"/>
				<path style="fill:#62625C;" d="M91.553,195.061c0.158-0.13,0.306-0.265,0.446-0.406c0.142-0.14,0.276-0.29,0.405-0.447
					c2.005-2.476,1.621-6.107-0.851-8.111L48.92,151.574l34.522,42.632C85.447,196.682,89.078,197.064,91.553,195.061z"/>
				<path style="fill:#62625C;" d="M114.313,216.116c-0.158,0.127-0.307,0.262-0.449,0.404c-0.14,0.139-0.274,0.289-0.405,0.448
					c-2.003,2.476-1.618,6.105,0.854,8.109l42.633,34.524l-34.526-42.632C120.419,214.493,116.785,214.114,114.313,216.116z"/>
				<path style="fill:#62625C;" d="M92,216.521c-0.141-0.142-0.289-0.277-0.446-0.404c-2.476-2.003-6.106-1.623-8.112,0.852
					L48.92,259.601l42.634-34.524c2.472-2.004,2.856-5.633,0.851-8.109C92.276,216.811,92.142,216.66,92,216.521z"/>
				<path style="fill:#62625C;" d="M113.864,194.656c0.142,0.141,0.291,0.276,0.449,0.406c2.472,2.003,6.109,1.621,8.107-0.855
					l34.526-42.632l-42.633,34.524c-2.472,2.004-2.857,5.635-0.854,8.111C113.59,194.366,113.724,194.516,113.864,194.656z"/>
			</g>
			<g>
				<path style="fill:#62625C;" d="M5.293,342.135H2.841v-1.154h6.201v1.154H6.59v7.1H5.293V342.135z"/>
				<path style="fill:#62625C;" d="M15.764,340.981h1.3v8.254h-1.3v-3.446h-3.955v3.446h-1.3v-8.254h1.3v3.653h3.955V340.981z"/>
				<path style="fill:#62625C;" d="M19.37,340.981h5.258v1.154H20.67v2.368h3.505v1.128H20.67v2.452h4.125v1.154H19.37V340.981z"/>
				<path style="fill:#62625C;" d="M31.034,349.235h-1.297v-8.254h2.645c1.928,0,3.035,1.055,3.035,2.621
					c0,1.154-0.571,1.98-1.601,2.355l1.988,3.278h-1.42l-1.845-3.048h-0.158h-1.348V349.235z M32.334,345.07
					c1.226,0,1.735-0.485,1.735-1.469c0-0.993-0.521-1.467-1.735-1.467h-1.3v2.936H32.334z"/>
				<path style="fill:#62625C;" d="M36.887,345.107c0-2.438,1.893-4.235,4.261-4.235c2.363,0,4.261,1.797,4.261,4.235
					c0,2.441-1.898,4.237-4.261,4.237C38.779,349.344,36.887,347.547,36.887,345.107z M44.058,345.107
					c0-1.746-1.202-3.057-2.911-3.057c-1.713,0-2.916,1.311-2.916,3.057c0,1.749,1.202,3.06,2.916,3.06
					C42.856,348.167,44.058,346.856,44.058,345.107z"/>
				<path style="fill:#62625C;" d="M45.831,340.981h1.434l2.113,3.702l2.071-3.702h1.362l-2.805,4.953v3.301h-1.298v-3.292
					L45.831,340.981z"/>
				<path style="fill:#62625C;" d="M57.817,347.691h-3.351l-0.643,1.543h-1.31l3.615-8.422h0.075l3.627,8.422h-1.372L57.817,347.691
					z M54.943,346.553h2.401l-1.187-2.888L54.943,346.553z"/>
				<path style="fill:#62625C;" d="M61.286,340.981h1.297v7.1h3.642v1.154h-4.939V340.981z"/>
				<path style="fill:#62625C;" d="M70.561,345.107c0-2.438,1.856-4.235,4.21-4.235c1.53,0,2.589,0.596,3.303,1.603l-0.993,0.702
					c-0.548-0.739-1.25-1.127-2.345-1.127c-1.637,0-2.827,1.311-2.827,3.057c0,1.786,1.214,3.06,2.874,3.06
					c1.071,0,1.857-0.399,2.476-1.203l1.008,0.693c-0.848,1.128-1.931,1.687-3.531,1.687
					C72.378,349.344,70.561,347.547,70.561,345.107z"/>
				<path style="fill:#62625C;" d="M84.495,347.691h-3.35l-0.643,1.543h-1.31l3.619-8.422h0.071l3.63,8.422h-1.374L84.495,347.691z
					 M81.62,346.553h2.405l-1.191-2.888L81.62,346.553z"/>
				<path style="fill:#62625C;" d="M89.265,349.235h-1.3v-8.254h2.624c1.928,0,3.035,1.068,3.035,2.671
					c0,1.639-1.119,2.669-3.035,2.669h-1.325V349.235z M90.542,345.167c1.226,0,1.731-0.508,1.731-1.515
					c0-1.021-0.517-1.517-1.731-1.517h-1.277v3.032H90.542z"/>
				<path style="fill:#62625C;" d="M95.278,340.981h1.3v8.254h-1.3V340.981z"/>
				<path style="fill:#62625C;" d="M100.497,342.135h-2.452v-1.154h6.201v1.154h-2.452v7.1h-1.298V342.135z"/>
				<path style="fill:#62625C;" d="M109.376,347.691h-3.351l-0.646,1.543h-1.312l3.618-8.422h0.074l3.628,8.422h-1.37
					L109.376,347.691z M106.496,346.553h2.404l-1.19-2.888L106.496,346.553z"/>
				<path style="fill:#62625C;" d="M112.845,340.981h1.298v7.1h3.642v1.154h-4.94V340.981z"/>
				<path style="fill:#62625C;" d="M122.118,345.107c0-2.438,1.891-4.235,4.26-4.235c2.369,0,4.261,1.797,4.261,4.235
					c0,2.441-1.893,4.237-4.261,4.237C124.009,349.344,122.118,347.547,122.118,345.107z M129.291,345.107
					c0-1.746-1.201-3.057-2.913-3.057c-1.711,0-2.912,1.311-2.912,3.057c0,1.749,1.201,3.06,2.912,3.06
					C128.09,348.167,129.291,346.856,129.291,345.107z"/>
				<path style="fill:#62625C;" d="M132.508,340.981h5.144v1.154h-3.847v2.597h3.508v1.154h-3.508v3.35h-1.297V340.981z"/>
				<path style="fill:#62625C;" d="M142.482,340.813h0.063l4.029,4.648l3.984-4.648h0.06v8.422h-1.226v-5.352l-2.818,3.361h-0.059
					l-2.803-3.361v5.352h-1.23V340.813z"/>
				<path style="fill:#62625C;" d="M157.383,347.691h-3.35l-0.643,1.543h-1.309l3.616-8.422h0.075l3.629,8.422h-1.374
					L157.383,347.691z M154.506,346.553h2.404l-1.187-2.888L154.506,346.553z"/>
				<path style="fill:#62625C;" d="M160.002,345.107c0-2.438,1.857-4.235,4.21-4.235c1.53,0,2.586,0.596,3.303,1.603l-0.997,0.702
					c-0.547-0.739-1.249-1.127-2.341-1.127c-1.64,0-2.83,1.311-2.83,3.057c0,1.786,1.215,3.06,2.878,3.06
					c1.069,0,1.86-0.399,2.479-1.203l1.005,0.693c-0.85,1.128-1.928,1.687-3.532,1.687
					C161.822,349.344,160.002,347.547,160.002,345.107z"/>
				<path style="fill:#62625C;" d="M169.309,340.981h5.258v1.154h-3.958v2.368h3.509v1.128h-3.509v2.452h4.127v1.154h-5.427V340.981
					z"/>
				<path style="fill:#62625C;" d="M176.587,340.981h2.332c2.69,0,4.344,1.688,4.344,4.126c0,2.441-1.639,4.128-4.344,4.128h-2.332
					V340.981z M178.842,348.081c2.14,0,3.071-1.225,3.071-2.975c0-1.746-0.931-2.972-3.071-2.972h-0.957v5.947H178.842z"/>
				<path style="fill:#62625C;" d="M184.687,345.107c0-2.438,1.893-4.235,4.261-4.235c2.365,0,4.261,1.797,4.261,4.235
					c0,2.441-1.896,4.237-4.261,4.237C186.579,349.344,184.687,347.547,184.687,345.107z M191.858,345.107
					c0-1.746-1.199-3.057-2.91-3.057c-1.714,0-2.917,1.311-2.917,3.057c0,1.749,1.203,3.06,2.917,3.06
					C190.658,348.167,191.858,346.856,191.858,345.107z"/>
				<path style="fill:#62625C;" d="M196.288,343.81v5.425h-1.217v-8.376h0.102l5.29,5.547v-5.425h1.214v8.376h-0.096L196.288,343.81
					z"/>
			</g>
		</g>
	</g>
	<rect id="area_3_" y="125" style="opacity:0;fill:#CCCCCC;" width="204.5" height="228.485"/>
</g>
<g id="sprite_x5F_title">
	<g id="graphics_4_">
		<g>
			<path style="fill:#62625C;" d="M868.827,41.399h-14.475l-3.149,7.896h-3.102l13.441-32.71h0.235l13.488,32.71h-3.243
				L868.827,41.399z M855.48,38.673h12.219l-6.11-15.18L855.48,38.673z"/>
			<path style="fill:#62625C;" d="M880.601,17.337h3.055v29.232h14.851v2.726h-17.906V17.337z"/>
			<path style="fill:#62625C;" d="M903.908,17.337h19.269v2.726h-16.214v11.796h14.475v2.679h-14.475v12.031h16.872v2.726h-19.927
				V17.337z"/>
			<path style="fill:#62625C;" d="M930.242,17.337h3.478l7.66,11.937l7.661-11.937h3.29l-9.305,14.475l11.232,17.483h-3.478
				l-9.493-14.757l-9.493,14.757h-3.29L939.641,32L930.242,17.337z"/>
			<path style="fill:#62625C;" d="M979.215,41.399h-14.475l-3.149,7.896h-3.102l13.441-32.71h0.235l13.488,32.71h-3.243
				L979.215,41.399z M965.867,38.673h12.219l-6.11-15.18L965.867,38.673z"/>
			<path style="fill:#62625C;" d="M993.855,24.151v25.143h-2.867V16.679h0.282l21.525,25.801V17.337h2.867v32.616h-0.282
				L993.855,24.151z"/>
			<path style="fill:#62625C;" d="M1024.353,17.337h7.99c10.574,0,16.872,6.533,16.872,15.979c0,9.446-6.251,15.979-16.872,15.979
				h-7.99V17.337z M1032.061,46.522c9.447,0,13.958-5.452,13.958-13.206c0-7.755-4.512-13.206-13.958-13.206h-4.653v26.412H1032.061
				z"/>
			<path style="fill:#62625C;" d="M1055.979,17.337h19.269v2.726h-16.214v11.796h14.475v2.679h-14.475v12.031h16.872v2.726h-19.927
				V17.337z"/>
			<path style="fill:#62625C;" d="M1084.738,49.295h-3.055V17.337h9.54c6.909,0,10.668,4.136,10.668,9.54
				c0,4.324-2.444,7.707-6.909,8.883l8.412,13.535h-3.431l-8.083-13.065h-0.752h-6.392V49.295z M1091.036,33.551
				c5.217,0,7.661-2.585,7.661-6.674c0-4.136-2.491-6.815-7.661-6.815h-6.297v13.488H1091.036z"/>
			<path style="fill:#62625C;" d="M1128.682,20.063h-9.916v-2.726h22.84v2.726h-9.869v29.232h-3.055V20.063z"/>
			<path style="fill:#62625C;" d="M1167.296,17.337h3.055v31.958h-3.055V34.82h-17.436v14.475h-3.055V17.337h3.055v14.757h17.436
				V17.337z"/>
			<path style="fill:#62625C;" d="M1179.042,17.337h19.269v2.726h-16.214v11.796h14.475v2.679h-14.475v12.031h16.872v2.726h-19.927
				V17.337z"/>
			<path style="fill:#62625C;" d="M1216.124,33.316c0-9.446,7.238-16.355,16.214-16.355c5.593,0,9.305,1.974,12.031,4.982
				l-2.162,2.021c-2.209-2.444-5.029-4.23-9.964-4.23c-7.425,0-12.924,5.828-12.924,13.582c0,7.754,5.593,13.582,13.488,13.582
				c4.7,0,7.66-1.363,9.728-3.102v-7.332h-9.634v-2.726h12.548v11.467c-2.914,2.585-6.627,4.465-12.642,4.465
				C1223.409,49.671,1216.124,42.809,1216.124,33.316z"/>
			<path style="fill:#62625C;" d="M1256.022,49.295h-3.055V17.337h9.54c6.909,0,10.668,4.136,10.668,9.54
				c0,4.324-2.444,7.707-6.909,8.883l8.413,13.535h-3.431l-8.083-13.065h-0.752h-6.392V49.295z M1262.319,33.551
				c5.217,0,7.661-2.585,7.661-6.674c0-4.136-2.491-6.815-7.661-6.815h-6.297v13.488H1262.319z"/>
			<path style="fill:#62625C;" d="M1280.528,17.337h19.268v2.726h-16.214v11.796h14.475v2.679h-14.475v12.031h16.872v2.726h-19.927
				V17.337z"/>
			<path style="fill:#62625C;" d="M1325.693,41.399h-14.475l-3.149,7.896h-3.102l13.441-32.71h0.235l13.488,32.71h-3.243
				L1325.693,41.399z M1312.346,38.673h12.219l-6.11-15.18L1312.346,38.673z"/>
			<path style="fill:#62625C;" d="M1340.738,20.063h-9.916v-2.726h22.84v2.726h-9.869v29.232h-3.055V20.063z"/>
			<path style="fill:#62625C;" d="M786.412,72.156c0-4.22,3.275-7.307,7.328-7.307c4.052,0,7.328,3.086,7.328,7.307
				c0,4.22-3.275,7.307-7.328,7.307C789.687,79.463,786.412,76.377,786.412,72.156z M799.639,72.156c0-3.464-2.498-6.068-5.9-6.068
				c-3.401,0-5.9,2.604-5.9,6.068c0,3.464,2.499,6.068,5.9,6.068C797.141,78.224,799.639,75.621,799.639,72.156z"/>
			<path style="fill:#62625C;" d="M807.09,68.062v11.233h-1.281V64.724h0.126l9.616,11.527V65.018h1.281v14.571h-0.126
				L807.09,68.062z"/>
			<path style="fill:#62625C;" d="M822.456,65.018h1.365v13.06h6.635v1.218h-8V65.018z"/>
			<path style="fill:#62625C;" d="M834.663,65.018h1.386v14.277h-1.386V65.018z"/>
			<path style="fill:#62625C;" d="M842.953,68.062v11.233h-1.281V64.724h0.126l9.616,11.527V65.018h1.281v14.571h-0.126
				L842.953,68.062z"/>
			<path style="fill:#62625C;" d="M858.319,65.018h8.608v1.218h-7.244v5.27h6.467v1.197h-6.467v5.375h7.538v1.218h-8.902V65.018z"/>
			<path style="fill:#62625C;" d="M877.786,65.018h1.47l4.619,11.485l4.64-11.485h1.407l-6.026,14.571h-0.084L877.786,65.018z"/>
			<path style="fill:#62625C;" d="M894.1,65.018h1.386v14.277H894.1V65.018z"/>
			<path style="fill:#62625C;" d="M902.475,79.295h-1.365V65.018h4.262c3.086,0,4.766,1.848,4.766,4.262
				c0,1.932-1.092,3.443-3.086,3.968l3.758,6.047h-1.533l-3.611-5.837h-0.336h-2.855V79.295z M905.288,72.261
				c2.331,0,3.422-1.155,3.422-2.981c0-1.848-1.113-3.044-3.422-3.044h-2.813v6.026H905.288z"/>
			<path style="fill:#62625C;" d="M917.916,66.235h-4.43v-1.218h10.204v1.218h-4.409v13.06h-1.365V66.235z"/>
			<path style="fill:#62625C;" d="M927.712,74.445v-9.427h1.365v9.322c0,2.583,1.449,3.884,3.674,3.884
				c2.247,0,3.674-1.302,3.674-3.884v-9.322h1.365v9.427c0,3.317-2.163,5.018-5.039,5.018
				C929.875,79.463,927.712,77.762,927.712,74.445z"/>
			<path style="fill:#62625C;" d="M950.561,75.768h-6.467l-1.407,3.527h-1.386l6.005-14.613h0.105l6.026,14.613h-1.449
				L950.561,75.768z M944.598,74.55h5.459l-2.729-6.782L944.598,74.55z"/>
			<path style="fill:#62625C;" d="M957.574,65.018h1.365v13.06h6.635v1.218h-8V65.018z"/>
			<path style="fill:#62625C;" d="M976.978,64.724h0.084l6.719,8.314l6.677-8.314h0.105v14.571h-1.302V68.083l-5.48,6.887h-0.084
				l-5.417-6.887v11.212h-1.302V64.724z"/>
			<path style="fill:#62625C;" d="M996.117,74.445v-9.427h1.365v9.322c0,2.583,1.449,3.884,3.674,3.884
				c2.247,0,3.674-1.302,3.674-3.884v-9.322h1.365v9.427c0,3.317-2.163,5.018-5.039,5.018
				C998.28,79.463,996.117,77.762,996.117,74.445z"/>
			<path style="fill:#62625C;" d="M1011.544,75.978c0.756,1.428,2.058,2.247,3.737,2.247c1.953,0,3.107-0.966,3.107-2.457
				c0-1.575-0.966-2.268-2.688-3.065l-1.155-0.546c-2.058-0.966-3.317-1.911-3.317-3.905c0-2.037,1.596-3.401,3.737-3.401
				c1.848,0,3.065,0.672,3.947,2.1l-1.05,0.672c-0.63-1.071-1.554-1.575-2.876-1.575c-1.449,0-2.415,0.903-2.415,2.163
				c0,1.365,0.777,1.89,2.52,2.709l1.134,0.546c2.289,1.071,3.527,2.121,3.527,4.262c0,2.352-1.785,3.737-4.451,3.737
				c-2.331,0-3.989-1.134-4.913-2.877L1011.544,75.978z"/>
			<path style="fill:#62625C;" d="M1024.436,65.018h8.608v1.218h-7.244v5.27h6.467v1.197h-6.467v5.375h7.538v1.218h-8.902V65.018z"
				/>
			<path style="fill:#62625C;" d="M1037.481,74.445v-9.427h1.365v9.322c0,2.583,1.449,3.884,3.674,3.884
				c2.247,0,3.674-1.302,3.674-3.884v-9.322h1.365v9.427c0,3.317-2.163,5.018-5.039,5.018
				C1039.643,79.463,1037.481,77.762,1037.481,74.445z"/>
			<path style="fill:#62625C;" d="M1053.092,64.724h0.084l6.719,8.314l6.677-8.314h0.105v14.571h-1.302V68.083l-5.48,6.887h-0.084
				l-5.417-6.887v11.212h-1.302V64.724z"/>
			<path style="fill:#62625C;" d="M1086.186,75.138c0.378-0.987,0.588-2.205,0.588-3.611h1.26c0,1.869-0.357,3.443-0.966,4.682
				l2.499,3.086h-1.68l-1.554-1.911c-1.071,1.344-2.604,2.079-4.388,2.079c-2.708,0-4.64-1.575-4.64-3.968
				c0-2.373,1.701-3.506,3.695-4.661l-0.252-0.315c-0.819-1.008-1.134-1.89-1.134-2.792c0-1.617,1.197-2.877,3.003-2.877
				c1.764,0,2.855,1.218,2.855,2.835c0,1.386-1.05,2.436-2.583,3.38L1086.186,75.138z M1081.735,71.736
				c-1.785,1.008-3.023,1.911-3.023,3.758c0,1.701,1.365,2.771,3.233,2.771c1.533,0,2.75-0.651,3.59-1.869L1081.735,71.736z
				 M1084.171,67.684c0-0.945-0.588-1.659-1.554-1.659c-1.029,0-1.68,0.714-1.68,1.701c0,0.735,0.336,1.365,0.84,1.995l0.378,0.462
				C1083.352,69.469,1084.171,68.776,1084.171,67.684z"/>
			<path style="fill:#62625C;" d="M1099.879,65.018h1.386v14.277h-1.386V65.018z"/>
			<path style="fill:#62625C;" d="M1108.17,68.062v11.233h-1.281V64.724h0.126l9.616,11.527V65.018h1.281v14.571h-0.126
				L1108.17,68.062z"/>
			<path style="fill:#62625C;" d="M1126.429,66.235h-4.43v-1.218h10.204v1.218h-4.409v13.06h-1.365V66.235z"/>
			<path style="fill:#62625C;" d="M1136.276,65.018h8.609v1.218h-7.244v5.27h6.467v1.197h-6.467v5.375h7.538v1.218h-8.903V65.018z"
				/>
			<path style="fill:#62625C;" d="M1150.887,79.295h-1.365V65.018h4.262c3.087,0,4.766,1.848,4.766,4.262
				c0,1.932-1.092,3.443-3.086,3.968l3.758,6.047h-1.533l-3.611-5.837h-0.336h-2.855V79.295z M1153.701,72.261
				c2.33,0,3.422-1.155,3.422-2.981c0-1.848-1.113-3.044-3.422-3.044h-2.813v6.026H1153.701z"/>
			<path style="fill:#62625C;" d="M1172.018,75.768h-6.467l-1.407,3.527h-1.385l6.005-14.613h0.105l6.026,14.613h-1.448
				L1172.018,75.768z M1166.056,74.55h5.459l-2.729-6.782L1166.056,74.55z"/>
			<path style="fill:#62625C;" d="M1177.503,72.156c0-4.241,3.17-7.307,7.223-7.307c2.415,0,4.325,0.987,5.606,2.667l-1.05,0.756
				c-1.071-1.386-2.583-2.184-4.577-2.184c-3.317,0-5.774,2.604-5.774,6.068c0,3.506,2.498,6.068,5.879,6.068
				c2.057,0,3.716-0.861,4.85-2.373l1.071,0.756c-1.407,1.848-3.401,2.855-5.963,2.855
				C1180.673,79.463,1177.482,76.398,1177.503,72.156z"/>
			<path style="fill:#62625C;" d="M1198.101,66.235h-4.43v-1.218h10.204v1.218h-4.409v13.06h-1.365V66.235z"/>
			<path style="fill:#62625C;" d="M1207.99,65.018h1.385v14.277h-1.385V65.018z"/>
			<path style="fill:#62625C;" d="M1213.522,65.018h1.47l4.619,11.485l4.64-11.485h1.407l-6.026,14.571h-0.084L1213.522,65.018z"/>
			<path style="fill:#62625C;" d="M1229.794,65.018h8.608v1.218h-7.244v5.27h6.467v1.197h-6.467v5.375h7.538v1.218h-8.902V65.018z"
				/>
			<path style="fill:#62625C;" d="M1250.458,65.018h3.569c4.724,0,7.538,2.918,7.538,7.139c0,4.22-2.793,7.139-7.538,7.139h-3.569
				V65.018z M1253.901,78.056c4.22,0,6.236-2.436,6.236-5.9c0-3.464-2.016-5.9-6.236-5.9h-2.078v11.8H1253.901z"/>
			<path style="fill:#62625C;" d="M1265.452,72.156c0-4.22,3.275-7.307,7.328-7.307c4.052,0,7.328,3.086,7.328,7.307
				c0,4.22-3.275,7.307-7.328,7.307C1268.727,79.463,1265.452,76.377,1265.452,72.156z M1278.679,72.156
				c0-3.464-2.498-6.068-5.9-6.068c-3.401,0-5.9,2.604-5.9,6.068c0,3.464,2.499,6.068,5.9,6.068
				C1276.181,78.224,1278.679,75.621,1278.679,72.156z"/>
			<path style="fill:#62625C;" d="M1283.925,72.156c0-4.241,3.17-7.307,7.223-7.307c2.414,0,4.325,0.987,5.606,2.667l-1.05,0.756
				c-1.071-1.386-2.583-2.184-4.577-2.184c-3.317,0-5.774,2.604-5.774,6.068c0,3.506,2.499,6.068,5.879,6.068
				c2.058,0,3.716-0.861,4.85-2.373l1.071,0.756c-1.407,1.848-3.401,2.855-5.963,2.855
				C1287.096,79.463,1283.904,76.398,1283.925,72.156z"/>
			<path style="fill:#62625C;" d="M1301.238,74.445v-9.427h1.365v9.322c0,2.583,1.449,3.884,3.674,3.884
				c2.247,0,3.674-1.302,3.674-3.884v-9.322h1.365v9.427c0,3.317-2.163,5.018-5.039,5.018
				C1303.4,79.463,1301.238,77.762,1301.238,74.445z"/>
			<path style="fill:#62625C;" d="M1316.849,64.724h0.084l6.719,8.314l6.677-8.314h0.105v14.571h-1.302V68.083l-5.48,6.887h-0.084
				l-5.417-6.887v11.212h-1.302V64.724z"/>
			<path style="fill:#62625C;" d="M1336.072,65.018h8.608v1.218h-7.244v5.27h6.467v1.197h-6.467v5.375h7.538v1.218h-8.902V65.018z"
				/>
			<path style="fill:#62625C;" d="M1350.599,68.062v11.233h-1.281V64.724h0.126l9.616,11.527V65.018h1.281v14.571h-0.126
				L1350.599,68.062z"/>
			<path style="fill:#62625C;" d="M1368.859,66.235h-4.43v-1.218h10.204v1.218h-4.409v13.06h-1.365V66.235z"/>
			<path style="fill:#62625C;" d="M1385.128,75.768h-6.467l-1.407,3.527h-1.386l6.005-14.613h0.105l6.026,14.613h-1.449
				L1385.128,75.768z M1379.166,74.55h5.459l-2.729-6.782L1379.166,74.55z"/>
			<path style="fill:#62625C;" d="M1393.506,79.295h-1.365V65.018h4.262c3.087,0,4.766,1.848,4.766,4.262
				c0,1.932-1.092,3.443-3.086,3.968l3.758,6.047h-1.533l-3.611-5.837h-0.336h-2.855V79.295z M1396.32,72.261
				c2.331,0,3.422-1.155,3.422-2.981c0-1.848-1.113-3.044-3.422-3.044h-2.813v6.026H1396.32z"/>
			<path style="fill:#62625C;" d="M1404.198,65.018h1.533l4.157,7.181l4.157-7.181h1.47l-4.934,8.545v5.732h-1.386v-5.711
				L1404.198,65.018z"/>
		</g>
	</g>
	<rect id="area_1_" x="777.774" style="opacity:0;fill:#CCCCCC;" width="644.5" height="91"/>
</g>
<g id="sprite_x5F_title-intro">
	<g id="graphics_6_">
		<g>
			<path style="fill:#BDBCA8;" d="M68.707,19.764h0.665l15.97,38.095h-4.214l-3.438-8.484h-17.3l-3.383,8.484h-3.936L68.707,19.764z
				 M76.304,45.936L70.482,31.52c-0.721-1.775-1.442-4.381-1.442-4.492c-0.055,0.111-0.776,2.717-1.497,4.436l-5.767,14.473H76.304z
				"/>
			<path style="fill:#BDBCA8;" d="M96.572,20.151h3.993V54.31h17.799v3.549H96.572V20.151z"/>
			<path style="fill:#BDBCA8;" d="M129.693,20.151h22.956V23.7h-18.964v13.475h16.912v3.493h-16.912V54.31h19.74v3.549h-23.732
				V20.151z"/>
			<path style="fill:#BDBCA8;" d="M176.847,37.342l-10.868-17.191h4.547l7.486,11.756c0.609,0.998,1.22,2.606,1.22,2.606
				s0.554-1.664,1.164-2.606l7.431-11.756h4.38l-10.813,17.191l13.031,20.517h-4.547l-9.592-15.083
				c-0.555-0.887-1.22-2.384-1.275-2.606c-0.056,0.056-0.61,1.664-1.165,2.606l-9.537,15.083h-4.381L176.847,37.342z"/>
			<path style="fill:#BDBCA8;" d="M220.005,19.764h0.665l15.97,38.095h-4.214l-3.438-8.484h-17.301l-3.383,8.484h-3.937
				L220.005,19.764z M227.602,45.936L221.78,31.52c-0.721-1.775-1.441-4.381-1.441-4.492c-0.056,0.111-0.776,2.717-1.497,4.436
				l-5.768,14.473H227.602z"/>
			<path style="fill:#BDBCA8;" d="M253.915,31.63c-0.998-1.164-2.44-3.161-2.606-3.438c0,0.276,0.333,2.717,0.333,4.214v25.452
				h-3.771V19.764h0.666l22.513,26.616c0.998,1.22,2.439,3.271,2.607,3.493c0-0.111-0.277-2.662-0.277-4.27V20.151h3.715v38.095
				h-0.665L253.915,31.63z"/>
			<path style="fill:#BDBCA8;" d="M292.286,20.151h9.149c12.588,0,20.406,7.431,20.406,18.853c0,11.423-7.764,18.854-20.406,18.854
				h-9.149V20.151z M301.158,54.254c11.145,0,16.469-6.267,16.469-15.249c0-8.983-5.323-15.249-16.469-15.249h-4.879v30.498H301.158
				z"/>
			<path style="fill:#BDBCA8;" d="M334.844,20.151h22.957V23.7h-18.964v13.475h16.912v3.493h-16.912V54.31h19.74v3.549h-23.733
				V20.151z"/>
			<path style="fill:#BDBCA8;" d="M370.366,20.151h11.312c7.874,0,13.419,3.716,13.419,11.534c0,5.545-3.05,9.149-7.93,10.647
				l9.205,15.526h-4.714l-8.649-14.861c-0.555,0.056-1.165,0.056-1.775,0.056h-6.876v14.806h-3.993V20.151z M381.457,39.615
				c6.154,0,9.482-2.606,9.482-7.93c0-5.435-3.382-7.985-9.482-7.985h-7.098v15.915H381.457z"/>
			<path style="fill:#BDBCA8;" d="M436.519,23.7H424.93v-3.549h27.171V23.7h-11.589v34.158h-3.993V23.7z"/>
			<path style="fill:#BDBCA8;" d="M463.225,20.151h3.992V37.73h20.184V20.151h3.992v37.707h-3.992V41.334h-20.184v16.524h-3.992
				V20.151z"/>
			<path style="fill:#BDBCA8;" d="M506.565,20.151h22.957V23.7h-18.964v13.475h16.912v3.493h-16.912V54.31h19.74v3.549h-23.733
				V20.151z"/>
			<path style="fill:#BDBCA8;" d="M560.796,39.005c0-11.367,8.429-19.297,19.407-19.297c5.435,0,10.037,1.553,13.143,4.88
				l-2.718,2.717c-2.44-2.551-5.767-3.992-10.425-3.992c-8.872,0-15.248,6.709-15.248,15.692c0,8.983,6.432,15.692,15.581,15.692
				c5.157,0,8.816-1.553,11.146-3.438v-7.93h-11.201v-3.549h14.972v13.308c-2.772,2.718-7.818,5.213-14.916,5.213
				C569.28,58.302,560.796,50.372,560.796,39.005z"/>
			<path style="fill:#BDBCA8;" d="M609.144,20.151h11.312c7.874,0,13.419,3.716,13.419,11.534c0,5.545-3.05,9.149-7.93,10.647
				l9.205,15.526h-4.714l-8.649-14.861c-0.555,0.056-1.165,0.056-1.774,0.056h-6.876v14.806h-3.993V20.151z M620.235,39.615
				c6.154,0,9.482-2.606,9.482-7.93c0-5.435-3.382-7.985-9.482-7.985h-7.097v15.915H620.235z"/>
			<path style="fill:#BDBCA8;" d="M647.505,20.151h22.956V23.7h-18.964v13.475h16.912v3.493h-16.912V54.31h19.74v3.549h-23.732
				V20.151z"/>
			<path style="fill:#BDBCA8;" d="M697.227,19.764h0.666l15.97,38.095h-4.215l-3.438-8.484h-17.301l-3.382,8.484h-3.938
				L697.227,19.764z M704.825,45.936l-5.823-14.416c-0.721-1.775-1.441-4.381-1.441-4.492c-0.056,0.111-0.776,2.717-1.497,4.436
				l-5.767,14.473H704.825z"/>
			<path style="fill:#BDBCA8;" d="M728.896,23.7h-11.589v-3.549h27.17V23.7h-11.589v34.158h-3.992V23.7z"/>
		</g>
		<g>
			<g>
				<path style="fill:#B2B19F;" d="M253.606,76.915h8.122v1.16h-6.822v5.421h6.202v1.16h-6.202v5.861h-1.3V76.915z"/>
				<path style="fill:#B2B19F;" d="M267.119,90.518h-1.3V76.915h4.061c2.94,0,4.541,1.76,4.541,4.061c0,1.84-1.04,3.28-2.941,3.781
					l3.581,5.761h-1.46l-3.44-5.561h-0.32h-2.721V90.518z M269.799,83.816c2.221,0,3.261-1.1,3.261-2.841
					c0-1.761-1.06-2.901-3.261-2.901h-2.681v5.741H269.799z"/>
				<path style="fill:#B2B19F;" d="M278.158,83.716c0-4.021,3.121-6.961,6.981-6.961c3.861,0,6.981,2.941,6.981,6.961
					c0,4.021-3.121,6.961-6.981,6.961C281.279,90.678,278.158,87.737,278.158,83.716z M290.761,83.716
					c0-3.301-2.38-5.781-5.621-5.781c-3.241,0-5.621,2.48-5.621,5.781c0,3.301,2.38,5.781,5.621,5.781
					C288.38,89.498,290.761,87.017,290.761,83.716z"/>
				<path style="fill:#B2B19F;" d="M296.636,76.635h0.08l6.401,7.922l6.361-7.922h0.1v13.883h-1.24V79.835l-5.221,6.562h-0.08
					l-5.161-6.562v10.682h-1.24V76.635z"/>
				<path style="fill:#B2B19F;" d="M329.177,87.157h-6.161l-1.34,3.361h-1.32l5.721-13.923h0.1l5.741,13.923h-1.38L329.177,87.157z
					 M323.496,85.997h5.201l-2.6-6.461L323.496,85.997z"/>
				<path style="fill:#B2B19F;" d="M335.899,76.915h1.32v13.603h-1.32V76.915z"/>
				<path style="fill:#B2B19F;" d="M341.767,83.716c0-4.021,3.08-6.961,6.901-6.961c2.38,0,3.961,0.84,5.121,2.121l-0.92,0.86
					c-0.94-1.04-2.14-1.8-4.241-1.8c-3.161,0-5.501,2.48-5.501,5.781c0,3.301,2.38,5.781,5.741,5.781c2,0,3.261-0.58,4.141-1.32
					v-3.121h-4.101v-1.16h5.341v4.881c-1.24,1.101-2.82,1.9-5.381,1.9C344.868,90.678,341.767,87.757,341.767,83.716z"/>
				<path style="fill:#B2B19F;" d="M366.422,87.157h-6.161l-1.34,3.361h-1.32l5.721-13.923h0.1l5.741,13.923h-1.38L366.422,87.157z
					 M360.741,85.997h5.201l-2.601-6.461L360.741,85.997z"/>
				<path style="fill:#B2B19F;" d="M373.145,76.915h1.32v13.603h-1.32V76.915z"/>
				<path style="fill:#B2B19F;" d="M389.445,78.075h-4.221v-1.16h9.722v1.16h-4.201v12.443h-1.3V78.075z"/>
				<path style="fill:#B2B19F;" d="M397.198,83.716c0-4.021,3.121-6.961,6.982-6.961c3.861,0,6.981,2.941,6.981,6.961
					c0,4.021-3.121,6.961-6.981,6.961C400.318,90.678,397.198,87.737,397.198,83.716z M409.8,83.716c0-3.301-2.38-5.781-5.621-5.781
					c-3.241,0-5.621,2.48-5.621,5.781c0,3.301,2.38,5.781,5.621,5.781C407.42,89.498,409.8,87.017,409.8,83.716z"/>
				<path style="fill:#B2B19F;" d="M425.158,78.075h-4.221v-1.16h9.722v1.16h-4.201v12.443h-1.3V78.075z"/>
				<path style="fill:#B2B19F;" d="M443.264,76.915h1.3v13.603h-1.3v-6.161h-7.422v6.161h-1.3V76.915h1.3v6.281h7.422V76.915z"/>
				<path style="fill:#B2B19F;" d="M449.919,76.915h8.202v1.16h-6.901v5.021h6.162v1.14h-6.162v5.121h7.182v1.16h-8.482V76.915z"/>
				<path style="fill:#B2B19F;" d="M468.418,76.915h1.36l3.321,10.582l4.101-10.902h0.1l4.121,10.902l3.301-10.582h1.28
					l-4.481,13.863h-0.1l-4.161-11.062l-4.241,11.062h-0.08L468.418,76.915z"/>
				<path style="fill:#B2B19F;" d="M488.739,83.716c0-4.021,3.121-6.961,6.982-6.961c3.861,0,6.981,2.941,6.981,6.961
					c0,4.021-3.121,6.961-6.981,6.961C491.859,90.678,488.739,87.737,488.739,83.716z M501.341,83.716
					c0-3.301-2.38-5.781-5.621-5.781c-3.241,0-5.621,2.48-5.621,5.781c0,3.301,2.38,5.781,5.621,5.781
					C498.961,89.498,501.341,87.017,501.341,83.716z"/>
				<path style="fill:#B2B19F;" d="M508.517,90.518h-1.3V76.915h4.061c2.94,0,4.541,1.76,4.541,4.061c0,1.84-1.04,3.28-2.941,3.781
					l3.581,5.761h-1.461l-3.441-5.561h-0.32h-2.721V90.518z M511.197,83.816c2.221,0,3.261-1.1,3.261-2.841
					c0-1.761-1.06-2.901-3.261-2.901h-2.68v5.741H511.197z"/>
				<path style="fill:#B2B19F;" d="M520.608,76.915h1.3v12.442h6.321v1.16h-7.622V76.915z"/>
				<path style="fill:#B2B19F;" d="M532.203,76.915h3.401c4.501,0,7.182,2.781,7.182,6.801c0,4.021-2.661,6.802-7.182,6.802h-3.401
					V76.915z M535.483,89.337c4.021,0,5.941-2.32,5.941-5.621c0-3.301-1.92-5.621-5.941-5.621h-1.98v11.242H535.483z"/>
			</g>
		</g>
	</g>
	<rect id="area_10_" x="44.912" style="opacity:0;fill:#CCCCCC;" width="708.862" height="101"/>
</g>
<g id="sprite_x5F_logo-small">
	<g id="graphics_1_">
		<path style="fill:#585852;" d="M10.186,7.972c0.026,0.003,0.052,0.004,0.079,0.004c0.026,0,0.052-0.002,0.078-0.004
			c0.415-0.043,0.716-0.415,0.672-0.83L10.264,0L9.514,7.142C9.47,7.557,9.771,7.929,10.186,7.972z M10.264,8.955
			c-0.578,0-1.046,0.468-1.046,1.045c0,0.577,0.468,1.046,1.046,1.046c0.577,0,1.046-0.469,1.046-1.046
			C11.31,9.423,10.842,8.955,10.264,8.955z M10.343,12.028c-0.026-0.002-0.052-0.004-0.078-0.004c-0.026,0-0.052,0.002-0.079,0.004
			c-0.414,0.043-0.715,0.415-0.672,0.83L10.264,20l0.751-7.142C11.059,12.443,10.758,12.071,10.343,12.028z M8.236,10.079
			C8.239,10.052,8.241,10.026,8.241,10c0-0.026-0.001-0.052-0.004-0.079C8.192,9.507,7.821,9.206,7.407,9.25L0.264,10l7.142,0.751
			C7.821,10.794,8.192,10.493,8.236,10.079z M12.292,9.921C12.29,9.948,12.288,9.974,12.288,10c0,0.026,0.002,0.052,0.004,0.079
			c0.044,0.415,0.415,0.715,0.83,0.672L20.264,10l-7.143-0.75C12.708,9.206,12.336,9.507,12.292,9.921z M8.775,8.622
			c0.02-0.017,0.04-0.035,0.058-0.054C8.852,8.551,8.869,8.531,8.886,8.51c0.263-0.324,0.212-0.8-0.111-1.062L3.194,2.929
			L7.713,8.51C7.975,8.834,8.451,8.884,8.775,8.622z M11.754,11.378c-0.02,0.016-0.04,0.034-0.059,0.053
			c-0.018,0.018-0.036,0.038-0.053,0.059c-0.262,0.324-0.212,0.799,0.112,1.061l5.581,4.52l-4.52-5.581
			C12.554,11.166,12.078,11.116,11.754,11.378z M8.834,11.431c-0.019-0.019-0.038-0.037-0.058-0.053
			c-0.324-0.262-0.8-0.213-1.062,0.112l-4.519,5.581l5.582-4.52c0.323-0.262,0.374-0.737,0.111-1.061
			C8.869,11.469,8.852,11.45,8.834,11.431z M11.696,8.569c0.019,0.019,0.039,0.036,0.059,0.054c0.324,0.262,0.799,0.212,1.061-0.112
			l4.52-5.581l-5.581,4.519c-0.324,0.262-0.374,0.738-0.112,1.062C11.66,8.531,11.677,8.551,11.696,8.569z"/>
	</g>
	<rect id="area_2_" style="opacity:0;fill:#CCCCCC;" width="20.912" height="20"/>
</g>
</svg>
