<?xml version="1.0" encoding="iso-8859-1"?>
<!-- Generator: Adobe Illustrator 18.0.0, SVG Export Plug-In . SVG Version: 6.00 Build 0)  -->
<!DOCTYPE svg PUBLIC "-//W3C//DTD SVG 1.1//EN" "http://www.w3.org/Graphics/SVG/1.1/DTD/svg11.dtd">
<svg version="1.1" xmlns="http://www.w3.org/2000/svg" xmlns:xlink="http://www.w3.org/1999/xlink" x="0px" y="0px"
	 viewBox="0 0 424.524 228.485" style="enable-background:new 0 0 424.524 228.485;" xml:space="preserve">
<g id="sprite_x5F_twitter">
	<g id="graphics">
		<path style="fill:#58584F;" d="M414.636,1.043c-4.971,0-9,4.03-9,9c0,4.97,4.029,8.999,9,8.999c4.971,0,9-4.029,9-8.999
			C423.635,5.073,419.606,1.043,414.636,1.043z M419.17,8.229c0.004,0.097,0.006,0.195,0.006,0.293c0,2.998-2.281,6.454-6.453,6.454
			c-1.281,0-2.473-0.375-3.477-1.019c0.178,0.021,0.358,0.031,0.541,0.031c1.063,0,2.041-0.363,2.817-0.971
			c-0.993-0.018-1.83-0.674-2.119-1.575c0.138,0.027,0.28,0.041,0.427,0.041c0.207,0,0.407-0.028,0.597-0.08
			c-1.038-0.208-1.82-1.125-1.82-2.224c0-0.01,0-0.019,0-0.029c0.306,0.17,0.656,0.272,1.028,0.284
			c-0.609-0.408-1.009-1.101-1.009-1.888c0-0.416,0.112-0.806,0.307-1.14c1.119,1.372,2.79,2.275,4.676,2.37
			c-0.039-0.166-0.059-0.339-0.059-0.517c0-1.253,1.016-2.268,2.268-2.268c0.653,0,1.242,0.276,1.656,0.716
			c0.517-0.101,1.002-0.291,1.441-0.55c-0.17,0.53-0.53,0.974-0.998,1.255c0.459-0.055,0.896-0.177,1.303-0.357
			C419.998,7.509,419.613,7.909,419.17,8.229z"/>
	</g>
	<rect id="area_6_" x="404.746" style="opacity:0;fill:#CCCCCC;" width="19.778" height="20.085"/>
</g>
<g id="sprite_x5F_twitter-hover">
	<g id="graphics_3_">
		<path style="fill:#58584F;" d="M370.858,1.043c-4.971,0-9,4.03-9,9c0,4.97,4.029,8.999,9,8.999c4.971,0,9-4.029,9-8.999
			C379.857,5.073,375.828,1.043,370.858,1.043z M375.392,8.229c0.004,0.097,0.006,0.195,0.006,0.293
			c0,2.998-2.281,6.454-6.453,6.454c-1.281,0-2.473-0.375-3.477-1.019c0.178,0.021,0.358,0.031,0.541,0.031
			c1.063,0,2.041-0.363,2.817-0.971c-0.992-0.018-1.83-0.674-2.119-1.575c0.138,0.027,0.28,0.041,0.427,0.041
			c0.207,0,0.407-0.028,0.597-0.08c-1.038-0.208-1.82-1.125-1.82-2.224c0-0.01,0-0.019,0-0.029c0.306,0.17,0.656,0.272,1.028,0.284
			c-0.609-0.408-1.009-1.101-1.009-1.888c0-0.416,0.112-0.806,0.307-1.14c1.119,1.372,2.79,2.275,4.676,2.37
			c-0.039-0.166-0.059-0.339-0.059-0.517c0-1.253,1.016-2.268,2.268-2.268c0.653,0,1.242,0.276,1.656,0.716
			c0.517-0.101,1.002-0.291,1.441-0.55c-0.17,0.53-0.53,0.974-0.998,1.255c0.459-0.055,0.896-0.177,1.303-0.357
			C376.219,7.509,375.835,7.909,375.392,8.229z"/>
	</g>
	<rect id="area_7_" x="360.968" style="opacity:0;fill:#CCCCCC;" width="19.778" height="20.085"/>
</g>
<g id="sprite_x5F_facebook_1_">
	<g id="graphics_39_">
		<path style="fill:#58584F;" d="M327.191,1.089c-4.971,0-9.001,4.03-9.001,9c0,4.97,4.03,8.999,9.001,8.999
			c4.971,0,9-4.029,9-8.999C336.191,5.12,332.161,1.089,327.191,1.089z M329.573,10.052h-1.558c0,2.491,0,5.558,0,5.558h-2.311
			c0,0,0-3.036,0-5.558h-1.098V8.089h1.098V6.818c0-0.91,0.432-2.331,2.332-2.331l1.71,0.007V6.4c0,0-1.04,0-1.242,0
			s-0.489,0.102-0.489,0.534v1.156h1.76L329.573,10.052z"/>
	</g>
	<rect id="area_5_" x="317.19" style="opacity:0;fill:#CCCCCC;" width="19.778" height="20.085"/>
</g>
<g id="sprite_x5F_facebook-hover">
	<g id="graphics_2_">
		<path style="fill:#58584F;" d="M283.412,1.089c-4.971,0-9,4.03-9,9c0,4.97,4.03,8.999,9,8.999s9-4.029,9-8.999
			C292.413,5.12,288.383,1.089,283.412,1.089z M285.795,10.052h-1.558c0,2.491,0,5.558,0,5.558h-2.311c0,0,0-3.036,0-5.558h-1.098
			V8.089h1.098V6.818c0-0.91,0.432-2.331,2.332-2.331l1.71,0.007V6.4c0,0-1.04,0-1.242,0s-0.489,0.102-0.489,0.534v1.156h1.76
			L285.795,10.052z"/>
	</g>
	<rect id="area_4_" x="273.412" style="opacity:0;fill:#CCCCCC;" width="19.778" height="20.085"/>
</g>
<g id="sprite_x5F_logo">
	<g id="graphics_13_">
		<g>
			<g>
				<rect x="121.813" y="172.396" style="fill:#62625C;" width="4.36" height="32.687"/>
				<path style="fill:#62625C;" d="M101.574,172.287L86.28,205.083h4.809l2.872-6.277h15.939l2.869,6.277h4.808l-15.294-32.796
					H101.574z M95.855,194.665l6.076-13.287l6.073,13.287H95.855z"/>
				<rect x="197.505" y="172.396" style="fill:#62625C;" width="4.356" height="32.687"/>
				<path style="fill:#62625C;" d="M177.458,172.287l-15.291,32.796h4.808l2.869-6.277h15.937l2.872,6.277h4.811l-15.294-32.796
					H177.458z M171.737,194.665l6.076-13.287l6.075,13.287H171.737z"/>
				<path style="fill:#62625C;" d="M161.634,187.747c-0.925,0-14.809,0-14.809,0v4.194H157.4c-1.256,5.247-5.514,9.109-10.575,9.109
					c-6.047,0-10.949-5.51-10.949-12.312c0-6.797,4.902-12.307,10.949-12.307c3.565,0,6.731,1.919,8.73,4.885l3.362-2.857
					c-2.814-3.89-7.182-6.388-12.092-6.388c-8.486,0-15.365,7.462-15.365,16.667c0,9.211,6.879,16.674,15.365,16.674
					c8.486,0,15.363-7.463,15.363-16.674C162.188,188.088,162.144,187.747,161.634,187.747z"/>
			</g>
			<g>
				<path style="fill:#62625C;" d="M147.242,65.097c0.202,0.022,0.401,0.032,0.601,0.032c0.199,0,0.398-0.01,0.6-0.032
					c3.169-0.332,5.467-3.171,5.136-6.338l-5.736-54.558l-5.734,54.558C141.776,61.926,144.077,64.765,147.242,65.097z"/>
				<circle style="fill:#62625C;" cx="147.844" cy="80.589" r="7.986"/>
				<path style="fill:#62625C;" d="M148.444,96.079c-0.202-0.02-0.401-0.03-0.6-0.03c-0.2,0-0.399,0.009-0.601,0.03
					c-3.165,0.332-5.466,3.171-5.133,6.34l5.734,54.557l5.736-54.557C153.911,99.25,151.613,96.411,148.444,96.079z"/>
				<path style="fill:#62625C;" d="M132.353,81.189c0.021-0.202,0.029-0.402,0.029-0.6c0-0.2-0.008-0.401-0.029-0.603
					c-0.333-3.169-3.172-5.465-6.338-5.132l-54.559,5.734l54.559,5.733C129.181,86.656,132.02,84.358,132.353,81.189z"/>
				<path style="fill:#62625C;" d="M163.333,79.986c-0.018,0.201-0.029,0.402-0.029,0.603c0,0.198,0.011,0.398,0.029,0.602
					c0.333,3.167,3.173,5.465,6.338,5.131l54.559-5.733l-54.559-5.734C166.506,74.522,163.667,76.818,163.333,79.986z"/>
				<path style="fill:#62625C;" d="M136.465,70.061c0.158-0.129,0.306-0.265,0.446-0.406c0.142-0.14,0.276-0.29,0.405-0.447
					c2.005-2.476,1.621-6.107-0.851-8.111L93.831,26.574l34.522,42.632C130.359,71.682,133.989,72.064,136.465,70.061z"/>
				<path style="fill:#62625C;" d="M159.225,91.116c-0.158,0.127-0.307,0.262-0.449,0.405c-0.14,0.139-0.274,0.289-0.405,0.448
					c-2.003,2.476-1.618,6.105,0.854,8.109l42.633,34.524l-34.526-42.632C165.331,89.493,161.697,89.114,159.225,91.116z"/>
				<path style="fill:#62625C;" d="M136.912,91.521c-0.141-0.142-0.289-0.277-0.446-0.405c-2.476-2.003-6.106-1.623-8.112,0.853
					l-34.522,42.632l42.634-34.524c2.472-2.004,2.856-5.633,0.851-8.109C137.188,91.811,137.054,91.66,136.912,91.521z"/>
				<path style="fill:#62625C;" d="M158.776,69.656c0.142,0.141,0.291,0.276,0.449,0.406c2.472,2.003,6.109,1.621,8.107-0.855
					l34.526-42.632l-42.633,34.524c-2.472,2.004-2.857,5.635-0.854,8.111C158.502,69.366,158.636,69.516,158.776,69.656z"/>
			</g>
			<g>
				<path style="fill:#62625C;" d="M50.205,217.135h-2.452v-1.154h6.201v1.154h-2.452v7.1h-1.298V217.135z"/>
				<path style="fill:#62625C;" d="M60.676,215.981h1.3v8.254h-1.3v-3.446h-3.955v3.446h-1.3v-8.254h1.3v3.653h3.955V215.981z"/>
				<path style="fill:#62625C;" d="M64.282,215.981h5.258v1.154h-3.958v2.367h3.505v1.128h-3.505v2.452h4.125v1.154h-5.425V215.981z
					"/>
				<path style="fill:#62625C;" d="M75.946,224.235h-1.297v-8.254h2.645c1.928,0,3.035,1.055,3.035,2.621
					c0,1.154-0.571,1.98-1.601,2.355l1.988,3.278h-1.42l-1.845-3.048h-0.158h-1.348V224.235z M77.246,220.07
					c1.226,0,1.735-0.485,1.735-1.469c0-0.993-0.521-1.467-1.735-1.467h-1.3v2.936H77.246z"/>
				<path style="fill:#62625C;" d="M81.799,220.107c0-2.438,1.893-4.235,4.261-4.235c2.363,0,4.261,1.797,4.261,4.235
					c0,2.441-1.898,4.237-4.261,4.237C83.691,224.344,81.799,222.547,81.799,220.107z M88.97,220.107
					c0-1.746-1.202-3.057-2.911-3.057c-1.713,0-2.915,1.312-2.915,3.057c0,1.749,1.202,3.06,2.915,3.06
					C87.768,223.167,88.97,221.856,88.97,220.107z"/>
				<path style="fill:#62625C;" d="M90.743,215.981h1.434l2.113,3.702l2.071-3.702h1.362l-2.805,4.953v3.301h-1.298v-3.292
					L90.743,215.981z"/>
				<path style="fill:#62625C;" d="M102.729,222.691h-3.351l-0.643,1.544h-1.31l3.615-8.422h0.075l3.627,8.422h-1.372
					L102.729,222.691z M99.854,221.553h2.401l-1.187-2.888L99.854,221.553z"/>
				<path style="fill:#62625C;" d="M106.198,215.981h1.297v7.1h3.642v1.154h-4.939V215.981z"/>
				<path style="fill:#62625C;" d="M115.473,220.107c0-2.438,1.856-4.235,4.21-4.235c1.53,0,2.589,0.596,3.303,1.603l-0.993,0.702
					c-0.548-0.739-1.25-1.127-2.345-1.127c-1.637,0-2.827,1.312-2.827,3.057c0,1.786,1.214,3.06,2.874,3.06
					c1.071,0,1.857-0.399,2.476-1.203l1.008,0.693c-0.848,1.128-1.931,1.687-3.532,1.687
					C117.29,224.344,115.473,222.547,115.473,220.107z"/>
				<path style="fill:#62625C;" d="M129.407,222.691h-3.35l-0.643,1.544h-1.31l3.619-8.422h0.071l3.63,8.422h-1.374L129.407,222.691
					z M126.532,221.553h2.405l-1.191-2.888L126.532,221.553z"/>
				<path style="fill:#62625C;" d="M134.176,224.235h-1.3v-8.254h2.624c1.928,0,3.035,1.068,3.035,2.671
					c0,1.639-1.119,2.669-3.035,2.669h-1.325V224.235z M135.453,220.167c1.226,0,1.731-0.508,1.731-1.515
					c0-1.021-0.517-1.517-1.731-1.517h-1.277v3.032H135.453z"/>
				<path style="fill:#62625C;" d="M140.19,215.981h1.3v8.254h-1.3V215.981z"/>
				<path style="fill:#62625C;" d="M145.409,217.135h-2.452v-1.154h6.201v1.154h-2.452v7.1h-1.298V217.135z"/>
				<path style="fill:#62625C;" d="M154.288,222.691h-3.351l-0.646,1.544h-1.311l3.618-8.422h0.074l3.628,8.422h-1.37
					L154.288,222.691z M151.408,221.553h2.404l-1.19-2.888L151.408,221.553z"/>
				<path style="fill:#62625C;" d="M157.757,215.981h1.298v7.1h3.642v1.154h-4.94V215.981z"/>
				<path style="fill:#62625C;" d="M167.03,220.107c0-2.438,1.891-4.235,4.26-4.235c2.369,0,4.261,1.797,4.261,4.235
					c0,2.441-1.893,4.237-4.261,4.237C168.921,224.344,167.03,222.547,167.03,220.107z M174.203,220.107
					c0-1.746-1.201-3.057-2.913-3.057c-1.711,0-2.912,1.312-2.912,3.057c0,1.749,1.201,3.06,2.912,3.06
					C173.002,223.167,174.203,221.856,174.203,220.107z"/>
				<path style="fill:#62625C;" d="M177.42,215.981h5.144v1.154h-3.847v2.597h3.508v1.154h-3.508v3.35h-1.297V215.981z"/>
				<path style="fill:#62625C;" d="M187.394,215.813h0.063l4.029,4.648l3.984-4.648h0.06v8.422h-1.226v-5.352l-2.818,3.361h-0.059
					l-2.803-3.361v5.352h-1.23V215.813z"/>
				<path style="fill:#62625C;" d="M202.295,222.691h-3.35l-0.643,1.544h-1.309l3.616-8.422h0.075l3.629,8.422h-1.374
					L202.295,222.691z M199.418,221.553h2.404l-1.187-2.888L199.418,221.553z"/>
				<path style="fill:#62625C;" d="M204.914,220.107c0-2.438,1.857-4.235,4.21-4.235c1.53,0,2.586,0.596,3.303,1.603l-0.997,0.702
					c-0.547-0.739-1.249-1.127-2.341-1.127c-1.64,0-2.83,1.312-2.83,3.057c0,1.786,1.215,3.06,2.878,3.06
					c1.069,0,1.86-0.399,2.479-1.203l1.005,0.693c-0.85,1.128-1.928,1.687-3.532,1.687
					C206.734,224.344,204.914,222.547,204.914,220.107z"/>
				<path style="fill:#62625C;" d="M214.221,215.981h5.258v1.154h-3.958v2.367h3.509v1.128h-3.509v2.452h4.127v1.154h-5.427V215.981
					z"/>
				<path style="fill:#62625C;" d="M221.499,215.981h2.332c2.69,0,4.344,1.688,4.344,4.126c0,2.441-1.639,4.128-4.344,4.128h-2.332
					V215.981z M223.754,223.081c2.14,0,3.071-1.225,3.071-2.975c0-1.746-0.931-2.972-3.071-2.972h-0.957v5.947H223.754z"/>
				<path style="fill:#62625C;" d="M229.599,220.107c0-2.438,1.892-4.235,4.261-4.235c2.365,0,4.261,1.797,4.261,4.235
					c0,2.441-1.896,4.237-4.261,4.237C231.491,224.344,229.599,222.547,229.599,220.107z M236.769,220.107
					c0-1.746-1.199-3.057-2.91-3.057c-1.714,0-2.917,1.312-2.917,3.057c0,1.749,1.203,3.06,2.917,3.06
					C235.57,223.167,236.769,221.856,236.769,220.107z"/>
				<path style="fill:#62625C;" d="M241.2,218.81v5.425h-1.217v-8.376h0.102l5.29,5.547v-5.425h1.214v8.376h-0.096L241.2,218.81z"/>
			</g>
		</g>
	</g>
	<rect id="area_3_" x="44.912" style="opacity:0;fill:#CCCCCC;" width="204.5" height="228.485"/>
</g>
<g id="sprite_x5F_logo-small">
	<g id="graphics_1_">
		<path style="fill:#585852;" d="M10.186,7.972c0.026,0.003,0.052,0.004,0.079,0.004c0.026,0,0.052-0.002,0.078-0.004
			c0.415-0.043,0.716-0.415,0.672-0.83L10.264,0L9.514,7.142C9.47,7.557,9.771,7.929,10.186,7.972z M10.264,8.955
			c-0.578,0-1.046,0.468-1.046,1.045c0,0.577,0.468,1.046,1.046,1.046c0.577,0,1.046-0.469,1.046-1.046
			C11.31,9.423,10.842,8.955,10.264,8.955z M10.343,12.028c-0.026-0.002-0.052-0.004-0.078-0.004c-0.026,0-0.052,0.002-0.079,0.004
			c-0.414,0.043-0.715,0.415-0.672,0.83L10.264,20l0.751-7.142C11.059,12.443,10.758,12.071,10.343,12.028z M8.236,10.079
			C8.239,10.052,8.241,10.026,8.241,10c0-0.026-0.001-0.052-0.004-0.079C8.192,9.507,7.821,9.206,7.407,9.25L0.264,10l7.142,0.751
			C7.821,10.794,8.192,10.493,8.236,10.079z M12.292,9.921C12.29,9.948,12.288,9.974,12.288,10c0,0.026,0.002,0.052,0.004,0.079
			c0.044,0.415,0.415,0.715,0.83,0.672L20.264,10l-7.143-0.75C12.708,9.206,12.336,9.507,12.292,9.921z M8.775,8.622
			c0.02-0.017,0.04-0.035,0.058-0.054C8.852,8.551,8.869,8.531,8.886,8.51c0.263-0.324,0.212-0.8-0.111-1.062L3.194,2.929
			L7.713,8.51C7.975,8.834,8.451,8.884,8.775,8.622z M11.754,11.378c-0.02,0.016-0.04,0.034-0.059,0.053
			c-0.018,0.018-0.036,0.038-0.053,0.059c-0.262,0.324-0.212,0.799,0.112,1.061l5.581,4.52l-4.52-5.581
			C12.554,11.166,12.078,11.116,11.754,11.378z M8.834,11.431c-0.019-0.019-0.038-0.037-0.058-0.053
			c-0.324-0.262-0.8-0.213-1.062,0.112l-4.519,5.581l5.582-4.52c0.323-0.262,0.374-0.737,0.111-1.061
			C8.869,11.469,8.852,11.45,8.834,11.431z M11.696,8.569c0.019,0.019,0.039,0.036,0.059,0.054c0.324,0.262,0.799,0.212,1.061-0.112
			l4.52-5.581l-5.581,4.519c-0.324,0.262-0.374,0.738-0.112,1.062C11.66,8.531,11.677,8.551,11.696,8.569z"/>
	</g>
	<rect id="area_2_" style="opacity:0;fill:#CCCCCC;" width="20.912" height="20"/>
</g>
</svg>
